<?xml version="1.0" standalone="no"?>
<!DOCTYPE svg PUBLIC "-//W3C//DTD SVG 20010904//EN"
 "http://www.w3.org/TR/2001/REC-SVG-20010904/DTD/svg10.dtd">
<svg version="1.0" xmlns="http://www.w3.org/2000/svg"
 width="1528.000000pt" height="1528.000000pt" viewBox="0 0 1528.000000 1528.000000"
 preserveAspectRatio="xMidYMid meet">
<metadata>
Created by potrace 1.11, written by Peter Selinger 2001-2013
</metadata>
<g transform="translate(0.000000,1528.000000) scale(0.100000,-0.100000)"
fill="#000000" stroke="none">
<path d="M2125 12394 c-6 -1 -22 -5 -37 -8 -72 -16 -99 -77 -113 -257 -3 -42
-8 -87 -10 -100 -30 -144 -22 -478 12 -569 3 -8 8 -24 10 -35 20 -109 153
-344 243 -430 l28 -27 0 659 c0 362 -2 677 -5 700 -3 26 -12 44 -22 48 -23 9
-95 22 -106 19z"/>
<path d="M11030 12384 c-127 -25 -223 -70 -295 -141 -28 -26 -57 -61 -65 -78
-8 -16 -19 -33 -25 -37 -5 -4 -7 -8 -3 -8 3 0 0 -20 -7 -43 -28 -95 -5 -241
62 -387 14 -30 42 -93 63 -140 95 -215 350 -727 529 -1060 52 -98 67 -112 166
-160 89 -43 103 -47 88 -27 -6 6 -20 39 -32 72 -21 60 -29 78 -49 125 -6 14
-39 90 -73 170 -60 143 -75 177 -139 315 -33 72 -51 116 -51 125 0 3 -8 13
-16 23 -9 9 -13 17 -10 17 3 0 -4 21 -17 48 -37 74 -64 136 -63 143 1 3 -3 12
-10 20 -6 8 -37 73 -68 144 -32 72 -64 146 -73 165 -9 19 -17 40 -18 45 -2 6
-15 44 -30 85 -39 109 -40 231 -2 313 35 73 70 121 166 220 29 30 50 57 45 60
-4 2 -37 -2 -73 -9z"/>
<path d="M167 12372 c-15 -17 -15 -20 6 -49 42 -58 82 -108 90 -111 4 -2 7
-10 7 -17 0 -7 4 -15 9 -17 19 -6 162 -191 196 -253 109 -194 128 -393 58
-589 -22 -62 -89 -202 -103 -216 -3 -3 -13 -21 -23 -40 -31 -59 -52 -95 -57
-100 -5 -5 -26 -41 -57 -100 -10 -19 -20 -37 -23 -40 -3 -3 -14 -23 -25 -45
-11 -22 -23 -42 -26 -45 -21 -19 -148 -272 -156 -311 -3 -16 -10 -29 -16 -29
-6 0 -8 -3 -5 -6 4 -3 -4 -45 -17 -92 -13 -48 -23 -87 -22 -88 1 0 14 -8 29
-17 31 -19 56 -11 74 24 5 11 34 57 64 104 30 47 71 110 90 140 19 30 60 94
90 142 30 48 58 90 62 91 4 2 8 8 8 12 0 8 62 111 87 146 12 15 28 42 64 104
17 30 35 57 38 60 4 3 18 26 31 53 14 26 28 47 32 47 5 0 8 6 8 13 0 6 7 25
15 40 34 66 70 221 67 292 -1 29 -13 113 -19 135 -3 14 -7 30 -9 35 -7 32 -47
126 -55 130 -5 4 -9 15 -9 26 0 10 -4 19 -8 19 -5 0 -14 10 -19 23 -9 19 -104
152 -131 183 -11 12 -142 197 -157 222 -5 9 -18 25 -27 36 -10 11 -18 23 -18
28 0 9 -104 78 -118 78 -5 0 -16 -8 -25 -18z"/>
<path d="M818 12376 c-16 -8 -28 -12 -28 -8 0 3 -5 1 -10 -4 -7 -7 2 -45 25
-115 20 -57 36 -106 36 -109 1 -3 6 -16 11 -30 5 -14 11 -32 13 -40 6 -28 46
-155 54 -169 10 -19 23 -23 41 -11 12 7 12 16 2 57 -6 26 -14 59 -16 73 -4 22
-13 64 -31 150 -2 14 -12 57 -21 96 -16 72 -22 103 -23 117 -1 11 -23 8 -53
-7z"/>
<path d="M1275 12367 c-36 -20 -41 -27 -46 -72 -7 -62 -4 -296 6 -350 20 -118
49 -208 94 -295 53 -103 61 -106 56 -24 -2 38 -7 130 -10 204 -4 74 -8 160
-10 190 -6 92 -18 334 -17 353 1 23 -25 21 -73 -6z"/>
<path d="M1536 12373 c-49 -17 -65 -30 -78 -63 -37 -95 -41 -250 -13 -430 11
-66 57 -224 76 -262 11 -21 17 -38 14 -38 -7 0 54 -98 66 -105 5 -4 9 177 9
454 0 517 7 474 -74 444z"/>
<path d="M1030 12338 c-28 -50 -29 -47 16 -253 20 -88 38 -171 40 -185 3 -14
8 -34 11 -45 4 -11 8 -24 9 -30 13 -69 37 -165 43 -165 24 1 30 20 26 75 -3
32 -8 95 -11 139 -3 45 -7 101 -10 126 -3 25 -7 70 -9 100 -5 53 -14 139 -19
170 -4 27 -19 55 -46 83 l-26 28 -24 -43z"/>
<path d="M1745 12356 c-33 -51 -60 -263 -59 -476 0 -243 31 -402 115 -585 12
-27 22 -53 21 -57 -1 -5 3 -8 8 -8 5 0 9 -3 8 -7 -4 -13 112 -193 125 -193 4
0 7 -5 7 -11 0 -6 6 -16 13 -23 74 -77 154 -202 184 -288 49 -141 12 -272
-113 -403 -62 -64 -221 -198 -303 -255 -20 -14 -40 -30 -46 -36 -5 -6 -28 -24
-50 -40 -80 -58 -123 -98 -180 -169 -57 -70 -70 -106 -67 -193 1 -57 40 -146
89 -204 38 -46 178 -183 247 -243 62 -54 254 -243 271 -266 29 -41 37 -71 33
-113 -7 -55 -39 -101 -113 -159 -52 -40 -237 -157 -250 -157 -3 0 -11 -5 -18
-10 -7 -6 -21 -17 -32 -24 -18 -13 -18 -14 5 -11 56 7 180 49 305 104 63 28
79 34 88 33 4 -1 7 3 7 8 0 6 7 10 14 10 22 0 127 64 160 96 15 16 36 45 45
65 15 31 16 43 6 82 -20 78 -68 135 -220 261 -33 28 -68 57 -77 65 -9 9 -29
26 -45 39 -238 191 -331 306 -338 420 -5 87 49 186 146 267 40 34 128 98 224
164 184 126 258 224 305 405 33 126 16 296 -42 411 -19 37 -86 132 -116 163
-22 24 -72 100 -72 111 0 6 -3 11 -7 11 -11 0 -43 58 -43 76 0 8 -4 14 -9 14
-17 0 -92 228 -106 325 -4 22 -8 51 -11 65 -5 27 -5 203 1 260 8 95 17 177 20
196 2 12 7 48 10 80 4 33 9 66 10 74 13 72 16 128 6 134 -5 4 -39 9 -74 13
-62 5 -65 5 -82 -21z"/>
<path d="M10735 12362 c-59 -12 -177 -58 -225 -87 -187 -113 -234 -286 -142
-518 45 -111 296 -616 321 -644 6 -7 11 -18 11 -25 0 -7 9 -24 20 -38 11 -14
20 -28 20 -32 0 -3 17 -37 38 -75 22 -37 55 -97 74 -133 19 -36 46 -85 60
-110 14 -25 41 -74 60 -110 91 -169 88 -165 147 -194 77 -39 89 -41 102 -13 9
20 7 32 -11 68 -13 24 -25 46 -29 49 -3 3 -15 23 -26 45 -11 21 -51 96 -89
165 -84 153 -238 460 -299 595 -96 211 -105 234 -99 239 3 3 0 6 -6 6 -7 0
-12 5 -12 12 0 7 -19 59 -41 117 -23 58 -42 110 -44 116 -1 5 -5 17 -8 25 -31
81 -38 228 -14 268 5 6 6 12 2 12 -10 0 26 64 61 107 40 48 79 89 125 127 34
29 35 35 4 28z"/>
<path d="M11249 12355 c-69 -25 -86 -34 -134 -70 -69 -52 -103 -91 -133 -155
-52 -107 -31 -284 52 -450 13 -25 24 -49 26 -55 6 -20 23 -61 56 -130 17 -38
46 -99 62 -135 17 -36 54 -114 83 -175 29 -60 53 -112 53 -115 2 -5 137 -283
166 -340 10 -19 55 -107 99 -194 95 -186 107 -203 229 -331 90 -95 94 -97 118
-84 42 22 46 41 20 105 -28 70 -52 128 -71 169 -7 17 -22 50 -33 75 -11 25
-29 66 -41 93 -32 73 -57 127 -81 182 -12 28 -33 75 -47 105 -25 56 -35 76
-72 163 -36 81 -62 140 -93 207 -17 36 -38 85 -48 110 -10 25 -32 75 -49 113
-17 37 -44 96 -61 132 -16 36 -46 113 -67 172 -35 101 -37 116 -37 228 -1 115
1 123 32 189 32 68 83 139 132 184 l25 22 -76 -1 c-43 -1 -92 -7 -110 -14z"/>
<path d="M23 12255 c6 -84 4 -79 65 -158 109 -143 165 -305 161 -469 -2 -77
-18 -193 -34 -236 -2 -7 -5 -16 -6 -20 -6 -28 -59 -154 -101 -242 -77 -163
-74 -152 -84 -315 -3 -55 -7 -112 -8 -128 -4 -31 -3 -32 40 -41 26 -6 32 -3
45 21 8 15 29 54 46 86 18 33 33 65 33 72 0 7 3 15 8 17 4 2 41 71 82 153 41
83 78 152 83 153 4 2 7 9 7 15 0 7 15 44 34 82 79 166 89 201 92 325 1 69 -2
120 -8 127 -6 7 -8 13 -5 13 19 0 -62 175 -99 215 -13 14 -24 28 -24 31 0 3
-6 11 -12 18 -7 7 -24 28 -38 46 -14 18 -30 38 -35 44 -6 6 -26 31 -45 56 -19
25 -48 61 -65 80 -16 20 -41 51 -55 69 -36 49 -49 61 -67 61 -12 0 -14 -12
-10 -75z"/>
<path d="M11650 12321 c0 -3 -15 -5 -32 -5 -85 3 -211 -75 -253 -156 -18 -35
-41 -135 -39 -170 2 -40 19 -124 28 -138 3 -5 7 -22 10 -38 3 -16 17 -63 31
-104 14 -41 28 -82 30 -90 2 -8 4 -16 5 -17 2 -2 3 -6 5 -10 5 -20 100 -247
120 -288 8 -16 40 -88 71 -160 73 -170 69 -160 169 -385 48 -107 91 -202 96
-210 5 -8 12 -22 16 -30 61 -144 224 -470 235 -470 4 0 8 -5 8 -11 0 -6 45
-80 100 -165 55 -86 100 -158 100 -160 0 -3 6 -12 14 -20 8 -7 16 -19 18 -26
3 -9 11 -9 35 1 l30 12 -14 42 c-8 23 -54 157 -103 297 -48 140 -117 334 -154
431 -36 96 -66 178 -66 182 0 4 -9 26 -19 50 -23 51 -73 178 -75 192 -1 5 -7
19 -13 30 -6 11 -11 22 -11 25 -1 6 -18 56 -37 100 -7 19 -34 90 -59 156 -25
67 -50 132 -55 145 -5 13 -26 67 -45 119 -19 52 -41 109 -47 125 -7 17 -13 37
-15 45 -2 9 -11 34 -20 55 -10 22 -19 45 -20 50 -2 6 -13 42 -25 80 -25 85
-32 215 -15 281 17 64 50 129 94 182 22 26 29 42 21 43 -8 0 -23 2 -34 5 -37
8 -85 10 -85 5z"/>
<path d="M11856 12261 c-54 -28 -84 -67 -105 -135 -18 -59 -21 -161 -7 -245 6
-36 40 -150 55 -186 17 -39 172 -470 175 -485 1 -8 5 -22 8 -30 4 -8 34 -100
68 -205 34 -104 64 -197 67 -205 4 -8 5 -18 5 -22 -1 -5 2 -8 6 -8 4 0 8 -8 9
-17 1 -10 34 -115 73 -233 40 -118 73 -219 74 -225 2 -5 5 -17 9 -25 21 -57
89 -263 92 -280 2 -12 9 -28 16 -36 6 -8 9 -14 5 -14 -3 0 -1 -12 5 -27 6 -16
12 -35 14 -43 2 -8 16 -46 30 -85 15 -38 28 -77 30 -85 2 -8 4 -15 4 -15 2 0
49 -134 56 -155 6 -22 31 -90 81 -223 96 -257 194 -427 376 -654 32 -39 58
-74 58 -78 0 -3 9 -15 20 -27 11 -12 40 -63 64 -112 77 -155 80 -265 12 -417
-28 -64 -105 -182 -178 -276 -46 -59 -49 -65 -23 -49 99 63 214 171 266 251
21 33 43 65 48 71 5 6 21 46 36 89 60 175 25 354 -103 520 -25 33 -49 62 -52
65 -3 3 -24 28 -45 55 -22 28 -43 52 -47 53 -5 2 -8 7 -8 11 0 5 -20 39 -45
77 -48 73 -131 235 -163 319 -10 28 -23 59 -27 70 -5 11 -9 22 -10 25 -3 16
-38 129 -46 150 -8 23 -55 200 -65 245 -5 27 -11 49 -29 120 -9 33 -18 69 -20
80 -11 56 -17 80 -26 97 -5 10 -8 18 -5 18 3 0 0 15 -5 33 -6 17 -12 37 -13
42 -1 6 -8 30 -14 55 -19 72 -34 124 -40 140 -3 8 -6 20 -7 25 -2 6 -8 30 -15
55 -7 25 -14 52 -16 60 -1 8 -28 103 -60 210 -57 198 -61 209 -63 223 0 4 -7
23 -15 42 -8 19 -13 35 -11 35 2 0 -3 19 -11 43 -9 23 -17 47 -18 52 -2 6 -8
28 -14 50 -6 22 -12 45 -13 50 -1 6 -5 21 -10 33 -5 13 -18 56 -28 95 -11 40
-35 126 -54 192 -19 66 -38 134 -43 150 -11 43 -11 45 -14 48 -1 1 -3 11 -5
22 -2 11 -8 45 -14 75 -18 93 -23 124 -26 165 -2 22 -6 58 -9 80 -3 22 -8 65
-11 95 -22 223 -19 218 -128 226 -49 3 -70 0 -101 -15z"/>
<path d="M10320 12237 c-96 -45 -219 -159 -252 -234 -26 -56 -30 -164 -9 -228
13 -41 90 -206 100 -215 3 -3 12 -16 19 -29 8 -13 22 -38 31 -55 36 -63 195
-321 202 -326 3 -3 8 -10 10 -16 4 -11 184 -294 272 -427 26 -39 50 -79 55
-87 28 -57 130 -200 156 -218 27 -19 32 -20 45 -7 13 13 8 27 -38 117 -30 57
-57 108 -61 113 -4 6 -47 87 -95 180 -48 94 -92 176 -98 183 -5 6 -6 12 -3 12
4 0 0 7 -8 16 -9 8 -16 22 -16 30 0 8 -4 14 -10 14 -5 0 -10 8 -10 18 0 10 -4
22 -9 27 -19 22 -181 336 -181 353 0 6 -4 12 -8 14 -13 5 -133 256 -158 328
-17 51 -21 83 -19 150 2 47 5 94 7 106 6 33 57 131 85 164 14 17 23 30 21 29
-1 0 -14 -6 -28 -12z"/>
<path d="M9355 12206 c-123 -76 -131 -86 -212 -295 -25 -64 -49 -127 -55 -141
-5 -14 -10 -27 -10 -30 0 -3 -9 -23 -21 -45 -11 -22 -20 -42 -20 -45 1 -3 -16
-41 -37 -85 -46 -98 -71 -155 -75 -176 -2 -8 -10 -38 -17 -65 -17 -57 -15
-200 2 -221 2 -2 3 -6 4 -10 12 -46 83 -163 142 -232 43 -50 115 -130 149
-166 239 -250 353 -437 371 -610 2 -22 6 -49 8 -60 3 -11 5 -22 5 -24 1 -3 11
4 24 15 12 10 44 30 70 44 56 29 160 118 152 130 -3 5 -1 11 4 14 32 20 -23
147 -110 254 -5 6 -6 12 -2 12 4 0 3 4 -3 8 -6 4 -35 36 -65 72 -70 86 -154
177 -306 336 -138 145 -225 255 -265 340 -33 71 -38 91 -39 159 -1 112 34 198
164 405 47 74 105 167 129 205 23 39 45 72 48 75 10 8 70 110 70 118 0 7 -26
33 -45 44 -6 3 -33 -9 -60 -26z"/>
<path d="M12232 12172 c-11 -15 -29 -58 -41 -97 -41 -132 -23 -240 120 -726
11 -37 22 -76 24 -87 3 -19 32 -129 41 -160 2 -7 4 -14 4 -17 1 -3 6 -19 11
-37 6 -18 18 -64 29 -103 10 -38 26 -97 35 -130 9 -33 18 -67 20 -75 2 -8 12
-42 21 -75 9 -33 17 -64 19 -70 1 -5 5 -17 8 -25 4 -8 8 -26 10 -40 2 -14 6
-32 9 -40 6 -16 48 -164 53 -190 2 -8 13 -46 24 -84 11 -37 20 -71 19 -75 -1
-3 4 -18 10 -34 7 -15 14 -38 16 -50 2 -12 34 -125 71 -252 36 -126 68 -237
70 -245 9 -37 57 -197 62 -210 3 -8 7 -19 9 -25 42 -149 166 -374 323 -585 93
-126 179 -276 196 -345 5 -16 10 -37 12 -45 2 -8 7 -50 10 -94 14 -192 -73
-362 -306 -599 -105 -107 -201 -230 -201 -259 0 -24 174 52 222 97 15 14 32
25 38 25 6 0 8 4 5 10 -3 6 -2 10 4 10 10 0 155 141 202 196 14 16 34 44 44
62 11 18 23 32 27 32 4 0 8 6 8 14 0 8 4 16 8 18 20 8 80 156 98 243 6 27 6
173 0 205 -31 165 -103 311 -264 530 -163 223 -281 459 -329 659 -23 98 -27
127 -48 313 -7 68 -14 113 -31 203 -9 44 -18 94 -20 110 -3 17 -14 70 -24 118
-11 49 -19 92 -18 95 1 4 -4 32 -10 62 -14 68 -21 102 -32 160 -5 25 -11 55
-14 66 -2 12 -7 37 -10 55 -10 58 -17 93 -21 109 -2 8 -7 29 -10 45 -2 17 -7
41 -10 55 -3 14 -8 39 -10 55 -3 17 -8 37 -11 46 -2 9 -7 33 -9 53 -3 19 -10
57 -16 83 -6 27 -12 57 -14 68 -6 47 -16 102 -21 125 -3 14 -7 39 -10 55 -2
17 -7 41 -10 55 -3 14 -8 39 -11 55 -2 17 -10 62 -18 100 -11 60 -19 108 -31
200 -1 11 -3 20 -4 20 -1 0 -3 11 -6 25 -2 14 -7 41 -10 60 -4 19 -8 42 -9 51
-4 40 -31 117 -51 150 -38 60 -94 91 -191 103 -37 5 -44 2 -61 -22z"/>
<path d="M9985 12120 c-80 -62 -144 -129 -165 -171 -26 -51 -31 -120 -12 -183
18 -59 159 -339 173 -344 5 -2 9 -8 9 -14 0 -11 84 -139 146 -221 24 -31 44
-62 44 -67 0 -6 4 -10 8 -10 5 0 33 -30 62 -67 30 -38 66 -81 82 -98 15 -16
52 -57 82 -90 141 -155 139 -153 132 -120 -4 17 -7 36 -8 43 -1 6 -5 12 -9 12
-4 0 -10 14 -14 30 -4 17 -11 30 -16 30 -5 0 -9 5 -9 11 0 5 -18 37 -40 69
-22 32 -40 62 -40 65 0 3 -8 18 -19 33 -48 70 -91 141 -91 151 0 6 -3 11 -7
11 -5 0 -21 24 -37 53 -16 28 -32 54 -35 57 -3 3 -12 16 -20 30 -8 14 -36 59
-62 101 -97 159 -161 299 -175 383 -5 34 -5 125 0 153 12 58 31 113 52 151 14
23 24 42 22 42 -2 -1 -25 -18 -53 -40z"/>
<path d="M9002 12078 c-34 -35 -69 -72 -76 -84 -15 -20 -50 -119 -60 -165 -53
-248 -83 -355 -135 -476 -49 -113 -63 -179 -66 -297 -3 -118 14 -194 63 -291
27 -55 89 -149 119 -180 189 -201 309 -418 349 -630 15 -79 8 -310 -11 -364
-9 -23 42 15 102 78 69 71 139 168 148 204 4 15 10 27 14 27 4 0 8 6 8 13 1 6
5 33 10 58 15 71 4 198 -18 226 -6 7 -8 13 -5 13 4 0 0 10 -8 22 -9 12 -16 29
-16 36 0 7 -20 45 -45 83 -25 38 -45 72 -45 74 0 3 -18 28 -40 57 -22 29 -40
56 -40 60 0 10 -80 96 -169 182 -79 76 -191 208 -191 224 0 6 -3 12 -7 14 -30
13 -88 181 -84 243 4 89 16 154 36 201 8 19 12 34 10 34 -7 0 172 347 185 360
22 22 57 120 80 225 l17 80 -26 17 c-14 10 -28 18 -31 18 -3 0 -34 -28 -68
-62z"/>
<path d="M12618 12039 c-5 -15 21 -225 36 -296 14 -62 17 -79 21 -98 2 -11 6
-31 9 -45 4 -14 9 -41 12 -60 3 -19 8 -44 11 -55 4 -11 7 -27 8 -35 2 -13 14
-80 30 -158 2 -13 7 -32 10 -42 5 -15 18 -82 30 -155 3 -19 8 -41 19 -91 2
-12 7 -39 10 -60 4 -22 8 -46 11 -54 2 -8 7 -28 10 -45 9 -51 25 -139 30 -165
3 -14 8 -41 11 -60 10 -62 12 -73 28 -163 8 -49 15 -92 14 -95 0 -4 1 -9 2
-12 1 -3 3 -16 5 -30 7 -60 34 -224 71 -425 2 -16 19 -91 36 -165 17 -74 33
-147 35 -163 3 -15 9 -30 14 -33 5 -3 9 -15 9 -26 0 -37 77 -252 140 -393 17
-39 32 -72 32 -75 1 -3 11 -21 23 -40 12 -19 28 -50 36 -67 8 -18 17 -33 21
-33 5 0 8 -5 8 -11 0 -15 129 -202 185 -269 71 -85 73 -87 94 -127 87 -172 83
-353 -14 -544 -65 -129 -209 -286 -445 -489 -13 -12 -70 -63 -124 -113 -55
-51 -112 -103 -127 -117 l-27 -24 21 -26 22 -26 120 88 c66 48 129 95 140 103
87 68 184 144 205 160 57 46 219 215 262 272 58 78 113 189 135 273 24 91 21
243 -7 335 -11 39 -22 75 -23 80 -4 13 -37 86 -47 105 -5 8 -19 33 -31 55 -21
40 -66 108 -170 260 -31 44 -58 87 -62 95 -4 8 -21 38 -38 65 -40 66 -143 279
-159 330 -7 22 -17 45 -22 51 -5 7 -11 20 -13 30 -2 11 -13 47 -24 82 -18 54
-37 121 -47 157 -11 41 -43 199 -49 238 -3 27 -8 59 -11 70 -7 39 -21 221 -29
387 -8 154 -14 298 -19 402 -2 53 -7 102 -11 108 -3 5 -1 10 5 10 6 0 9 4 5 9
-3 6 -8 63 -10 128 -3 65 -7 165 -10 223 -3 58 -8 155 -10 215 -11 229 -13
262 -25 325 -15 79 -38 119 -87 153 -36 24 -130 61 -184 70 -13 3 -40 8 -60
12 -26 5 -38 3 -41 -6z"/>
<path d="M9685 11990 c-3 -5 -2 -10 4 -10 5 0 13 5 16 10 3 6 2 10 -4 10 -5 0
-13 -4 -16 -10z"/>
<path d="M8778 11964 c-3 -3 -16 -6 -30 -8 -13 -1 -46 -15 -75 -30 -37 -21
-57 -40 -76 -75 -23 -42 -25 -56 -23 -156 2 -110 -13 -233 -35 -290 -19 -48
-35 -88 -49 -120 -8 -16 -14 -32 -15 -35 -1 -3 -9 -29 -18 -59 -63 -204 -64
-404 -1 -573 43 -117 142 -282 215 -358 24 -25 99 -126 99 -134 0 -3 12 -25
27 -49 14 -23 26 -44 26 -47 0 -3 4 -16 9 -30 39 -98 51 -172 51 -300 -1 -192
-27 -277 -190 -620 -25 -52 -50 -101 -56 -109 -6 -7 -12 -20 -13 -29 -2 -8 -6
-18 -11 -21 -4 -3 -22 -33 -39 -66 -54 -104 -134 -254 -242 -450 -221 -402
-229 -418 -341 -642 -100 -199 -112 -225 -171 -363 -17 -41 -37 -88 -45 -105
-38 -87 -169 -461 -180 -515 -2 -8 -8 -35 -15 -60 -7 -25 -14 -52 -15 -60 -2
-8 -13 -55 -25 -103 -12 -49 -23 -101 -25 -115 -5 -38 -15 -94 -20 -112 -2 -8
-7 -39 -10 -69 -4 -30 -8 -63 -11 -74 -11 -59 -18 -215 -18 -397 0 -237 7
-324 38 -505 21 -117 21 -120 41 -199 9 -37 18 -72 19 -79 2 -7 5 -19 8 -27 3
-8 16 -49 28 -90 26 -87 118 -330 131 -344 5 -6 9 -18 9 -28 0 -10 5 -18 10
-18 6 0 10 -8 10 -18 0 -10 4 -22 10 -28 15 -15 61 -144 55 -155 -4 -5 -2 -9
3 -9 5 0 10 -10 10 -22 1 -22 9 -63 12 -63 1 0 3 -13 6 -30 13 -89 32 -144
111 -314 10 -20 21 -39 26 -42 5 -3 9 -10 9 -15 0 -5 7 -23 15 -40 l15 -31 44
16 c24 9 44 19 44 23 0 25 -157 470 -206 583 -21 50 -38 93 -36 98 1 4 -2 7
-8 7 -5 0 -10 8 -10 18 0 10 -4 22 -9 28 -18 19 -107 302 -116 369 -1 11 -7
47 -14 80 -15 85 -24 177 -25 267 -1 43 -5 78 -9 78 -5 0 -5 5 -2 11 4 5 9 54
11 107 2 53 6 114 8 134 7 53 16 110 21 138 3 14 8 39 11 55 8 43 12 60 14 63
3 2 3 5 14 52 4 19 17 64 28 100 11 36 21 72 23 80 28 112 114 367 210 620 37
96 68 180 69 185 2 6 8 21 13 35 6 14 30 79 53 145 23 66 48 134 55 150 7 17
18 46 25 65 7 19 16 44 20 55 16 37 92 240 95 250 1 6 5 17 8 25 21 51 207
559 207 564 0 3 9 25 19 49 19 43 100 254 105 272 2 10 42 117 67 180 7 17 13
35 15 40 7 23 35 102 43 120 24 54 96 251 93 258 -1 4 2 7 6 7 5 0 9 6 9 13 1
6 34 102 75 212 42 110 79 214 83 230 5 17 9 32 10 35 25 90 41 209 39 295 -4
217 -84 406 -244 575 -173 183 -261 343 -290 530 -10 70 -5 219 10 288 7 30
13 59 14 65 5 32 50 153 58 158 5 3 9 10 8 15 -1 5 10 34 24 64 31 68 67 170
59 170 -3 0 0 7 7 15 7 9 10 18 7 21 -3 3 1 24 9 47 8 22 17 53 19 69 3 16 12
47 19 69 l14 39 -28 0 c-14 0 -29 -3 -32 -6z"/>
<path d="M9632 11923 c-70 -83 -92 -169 -65 -254 19 -61 46 -119 56 -119 4 0
7 -7 7 -15 0 -8 5 -15 10 -15 6 0 10 -6 10 -13 0 -7 11 -26 25 -42 14 -17 68
-86 121 -155 89 -114 254 -320 279 -346 5 -6 24 -28 40 -48 17 -21 38 -48 48
-60 11 -11 33 -38 50 -59 18 -21 46 -53 62 -71 35 -38 253 -299 274 -327 9
-13 26 -19 52 -19 22 0 39 3 39 6 0 3 -11 20 -25 38 -14 18 -25 36 -25 40 0 4
-11 19 -25 34 -14 15 -25 32 -25 39 0 6 -3 13 -7 15 -5 2 -35 39 -67 83 -33
44 -63 82 -68 83 -4 2 -8 8 -8 13 0 7 -52 79 -123 169 -7 9 -32 42 -57 75 -25
33 -48 64 -53 70 -71 93 -137 186 -137 194 0 5 -4 11 -8 13 -11 4 -205 288
-197 288 3 0 -1 10 -9 23 -20 29 -57 146 -91 285 -15 62 -32 112 -39 112 -6 0
-26 -17 -44 -37z"/>
<path d="M29 11904 c-3 -217 -1 -646 3 -649 6 -7 82 148 103 210 9 28 17 65
18 82 1 18 5 33 8 33 8 0 2 141 -9 180 -13 52 -46 110 -86 154 l-36 40 -1 -50z"/>
<path d="M9397 11798 c-108 -117 -95 -264 40 -448 50 -68 150 -192 203 -250
17 -19 46 -53 63 -74 18 -22 37 -44 43 -50 5 -6 43 -49 83 -96 95 -110 171
-198 196 -226 11 -12 47 -53 80 -90 33 -38 73 -82 89 -99 15 -16 36 -39 45
-50 35 -42 62 -58 123 -70 35 -8 64 -10 66 -6 1 5 9 17 16 27 12 16 12 23 -2
46 -9 16 -20 28 -24 28 -4 0 -8 4 -8 10 0 5 -6 18 -14 27 -8 10 -38 47 -66 83
-62 79 -102 129 -127 155 -24 26 -203 233 -229 264 -10 13 -26 31 -35 40 -17
16 -192 223 -219 257 -8 11 -31 40 -51 64 -59 74 -113 171 -163 296 -27 66
-55 134 -62 152 -15 37 -22 38 -47 10z"/>
<path d="M8469 11799 c-8 -4 -33 -15 -57 -25 -53 -22 -105 -69 -120 -109 -6
-16 -11 -81 -11 -142 0 -62 -2 -116 -5 -121 -2 -4 -7 -28 -10 -53 -3 -25 -10
-59 -16 -75 -6 -16 -11 -30 -11 -31 0 -2 -1 -8 -4 -15 -69 -205 -88 -302 -89
-473 0 -138 14 -246 42 -317 7 -16 10 -28 7 -28 -5 0 16 -52 53 -130 22 -48
91 -166 114 -195 43 -53 138 -232 138 -257 0 -8 5 -19 12 -26 7 -7 8 -12 4
-12 -5 0 -4 -6 2 -13 29 -35 54 -280 38 -375 -4 -18 -8 -45 -11 -61 -9 -52
-47 -165 -78 -231 -49 -104 -195 -332 -237 -370 -3 -3 -25 -32 -50 -65 -24
-33 -50 -66 -57 -75 -7 -8 -51 -64 -98 -125 -47 -60 -91 -117 -98 -125 -7 -9
-25 -33 -42 -55 -16 -22 -33 -44 -38 -50 -4 -5 -35 -46 -67 -90 -33 -44 -64
-85 -69 -91 -4 -5 -14 -21 -21 -34 -7 -14 -19 -31 -27 -38 -7 -8 -33 -44 -57
-81 -105 -162 -136 -212 -136 -217 0 -3 -9 -19 -21 -35 -11 -16 -17 -29 -12
-29 4 0 3 -4 -3 -8 -10 -6 -134 -253 -134 -266 0 -3 -9 -25 -19 -49 -33 -73
-112 -306 -125 -372 -3 -11 -11 -51 -20 -90 -8 -38 -17 -90 -21 -115 -3 -25
-8 -59 -11 -75 -13 -85 -20 -225 -18 -350 2 -179 10 -251 51 -475 8 -47 16
-92 18 -100 1 -8 5 -22 8 -30 3 -8 13 -49 23 -90 9 -41 30 -120 46 -175 16
-55 31 -109 34 -120 7 -27 10 -37 16 -55 26 -71 141 -428 141 -437 0 -7 4 -13
9 -13 4 0 7 -3 6 -7 -1 -5 5 -28 12 -53 8 -25 14 -47 15 -50 0 -3 13 -54 27
-115 31 -128 35 -151 44 -265 16 -193 6 -327 -40 -510 -2 -8 -7 -28 -11 -45
-4 -16 -12 -36 -18 -42 -5 -7 -7 -13 -4 -13 3 0 -12 -44 -34 -97 -42 -100 -65
-208 -36 -168 30 43 66 116 136 282 79 187 123 261 199 336 l49 49 -29 86
c-17 48 -31 94 -33 102 -7 33 -106 324 -157 460 -51 135 -93 259 -102 305 -3
11 -11 47 -20 80 -8 33 -17 76 -20 95 -3 19 -8 46 -11 60 -3 14 -8 48 -11 75
-4 28 -8 53 -10 56 -6 11 -18 228 -18 349 0 124 10 316 18 356 2 11 7 45 10
75 3 30 8 64 10 75 2 12 7 39 10 60 8 48 17 102 23 129 2 11 6 31 9 45 24 124
72 301 140 518 2 7 3 13 3 15 -1 3 52 149 62 172 5 11 20 49 33 85 13 36 32
83 42 105 10 22 19 45 20 51 1 7 18 46 38 89 20 42 36 78 36 80 0 2 23 53 51
112 28 59 55 117 60 128 18 41 185 357 246 465 11 19 35 62 53 95 18 33 44 77
57 97 12 21 23 40 23 43 0 4 37 67 78 130 6 11 17 29 22 40 6 11 28 52 49 90
42 75 244 478 281 559 12 27 24 60 26 74 3 14 7 29 10 33 16 26 24 241 11 299
-32 148 -76 243 -192 416 -48 71 -90 131 -95 134 -4 3 -9 10 -11 15 -2 6 -26
43 -53 83 -26 41 -49 79 -50 85 -1 7 -10 29 -19 51 -9 21 -17 44 -17 52 0 7
-4 15 -9 18 -11 7 -34 147 -35 221 -2 70 18 212 38 272 8 23 12 44 8 47 -3 3
0 6 6 6 7 0 11 3 10 8 -2 11 13 63 33 107 18 41 83 298 94 369 3 21 7 41 9 45
2 3 7 23 10 43 5 31 3 37 -13 35 -10 0 -24 -4 -32 -8z"/>
<path d="M13156 11053 c3 -720 5 -806 18 -904 3 -24 8 -66 11 -94 3 -27 8 -61
10 -75 3 -14 7 -38 10 -55 3 -16 8 -43 12 -60 3 -16 7 -39 8 -50 4 -31 42
-175 60 -224 8 -24 12 -47 9 -52 -3 -5 -1 -9 3 -9 5 0 15 -21 22 -47 8 -27 18
-55 22 -63 4 -8 23 -55 44 -105 53 -130 136 -282 228 -420 44 -66 83 -122 87
-125 4 -3 28 -36 54 -75 25 -38 50 -74 54 -80 21 -29 65 -140 82 -210 53 -208
10 -417 -123 -617 -79 -117 -171 -211 -337 -343 -93 -74 -58 -48 -310 -236
-267 -199 -254 -188 -232 -216 l17 -23 73 50 c39 27 72 47 72 44 0 -3 6 0 13
6 6 6 89 61 182 123 94 61 175 115 180 119 6 4 46 34 90 66 243 178 402 368
484 580 12 28 19 52 16 52 -2 0 0 11 5 24 29 76 28 245 -2 361 -5 22 -11 47
-13 55 -6 30 -60 156 -93 220 -19 36 -83 139 -142 230 -59 91 -116 181 -126
200 -10 19 -22 37 -25 40 -18 16 -155 326 -164 372 -2 9 -8 25 -13 35 -6 10
-10 20 -10 23 1 3 -6 30 -15 61 -14 48 -24 90 -52 224 -17 80 -38 445 -25 445
3 0 5 37 6 83 0 77 8 221 18 347 3 30 7 91 10 135 4 44 8 98 11 120 5 49 13
138 20 225 3 36 8 80 11 97 12 79 14 291 1 320 -20 48 -53 82 -103 109 -45 24
-142 64 -155 64 -3 0 -5 -336 -3 -747z"/>
<path d="M835 11705 c5 -16 9 -42 10 -56 1 -14 4 -30 7 -35 7 -10 2 -197 -5
-229 -43 -189 -109 -329 -276 -585 -41 -63 -78 -116 -83 -118 -4 -2 -8 -7 -8
-12 0 -10 -182 -274 -192 -278 -5 -2 -8 -10 -8 -18 0 -8 -3 -14 -8 -14 -4 0
-18 -20 -32 -45 -14 -25 -28 -45 -31 -45 -4 0 -12 -13 -19 -30 -7 -16 -16 -30
-20 -30 -4 0 -10 -8 -13 -17 -4 -10 -17 -36 -30 -58 -20 -33 -49 -105 -52
-125 0 -3 -4 -11 -9 -18 -4 -7 -5 -16 -2 -19 3 -3 1 -12 -5 -20 -6 -7 -9 -13
-5 -13 3 0 2 -10 -3 -23 -5 -13 -12 -39 -15 -58 -3 -19 -8 -45 -11 -59 -10
-45 -18 -144 -18 -215 0 -93 10 -256 17 -275 3 -8 7 -37 10 -65 2 -27 6 -57 9
-65 3 -8 8 -37 11 -65 3 -27 8 -61 11 -75 33 -171 39 -531 10 -612 -2 -7 -6
-24 -9 -38 -2 -14 -12 -46 -21 -73 -15 -45 -14 -67 5 -67 4 0 42 34 84 75 80
79 156 176 181 229 40 88 45 208 13 311 -19 63 -94 221 -115 243 -6 6 -15 22
-19 35 -4 12 -9 24 -13 27 -21 17 -89 198 -95 252 -1 13 -5 29 -9 35 -8 12 -2
215 8 257 33 151 111 289 299 529 42 54 76 102 76 107 0 6 4 10 8 10 5 0 24
21 42 48 19 26 37 49 40 52 3 3 31 41 61 85 30 44 56 82 59 85 18 17 175 286
222 381 80 162 98 222 99 339 1 87 -11 140 -53 229 -30 63 -41 80 -87 130
l-24 26 8 -30z"/>
<path d="M8068 11528 c-36 -96 -57 -182 -63 -249 -2 -30 -4 -54 -5 -54 -1 0
-3 -22 -5 -50 -3 -48 -12 -127 -20 -170 -13 -81 -18 -102 -28 -120 -6 -11 -10
-22 -10 -25 0 -5 0 -7 -17 -61 -12 -41 -14 -49 -34 -139 -14 -64 -16 -253 -2
-315 24 -112 102 -291 195 -450 100 -171 152 -311 166 -450 10 -101 5 -214
-14 -297 -13 -58 -58 -179 -71 -192 -6 -6 -10 -18 -10 -27 0 -10 -4 -19 -8
-21 -4 -1 -21 -25 -36 -53 -37 -65 -147 -202 -223 -281 -13 -13 -23 -25 -23
-28 0 -3 -12 -18 -27 -34 -16 -16 -66 -71 -113 -122 -108 -118 -215 -233 -307
-328 -40 -42 -73 -77 -73 -78 0 -1 -18 -22 -41 -46 -104 -110 -251 -310 -335
-453 -57 -98 -174 -372 -183 -427 0 -5 -2 -10 -2 -13 -1 -3 -3 -9 -4 -15 -1
-5 -3 -11 -5 -12 -2 -4 -7 -27 -15 -73 -4 -22 -9 -44 -12 -49 -3 -4 -7 -20 -8
-35 -2 -14 -7 -51 -11 -81 -19 -124 -9 -461 16 -574 5 -23 11 -52 14 -66 25
-133 85 -320 186 -585 34 -88 68 -180 77 -205 9 -25 22 -58 28 -75 29 -71 79
-229 116 -365 16 -56 13 -46 24 -105 4 -27 10 -57 12 -65 20 -89 26 -376 9
-450 -3 -14 -9 -45 -12 -70 -3 -25 -8 -48 -11 -53 -2 -4 -7 -20 -10 -35 -8
-41 -11 -57 -13 -57 -1 0 -3 -7 -5 -15 -5 -27 -57 -175 -65 -185 -4 -5 -11
-21 -15 -35 -10 -32 -113 -243 -165 -340 -23 -41 -68 -124 -100 -185 -32 -60
-77 -144 -99 -185 -104 -192 -106 -198 -86 -220 18 -20 49 -22 135 -5 9 2 42
6 74 9 71 8 124 29 145 58 61 84 364 698 345 698 -2 0 2 12 9 28 17 33 72 192
87 250 38 147 42 347 10 507 -5 28 -12 61 -14 75 -3 14 -5 25 -6 25 -1 0 -3 8
-5 18 -10 53 -96 308 -125 372 -61 133 -179 493 -206 628 -2 10 -6 27 -9 37
-6 20 -9 34 -20 96 -4 22 -9 49 -11 62 -8 45 -13 78 -19 137 -4 33 -9 74 -12
90 -9 59 -11 452 -2 530 14 136 23 203 34 255 3 14 8 39 10 55 19 106 132 479
155 510 4 6 11 21 15 35 20 66 197 407 219 422 6 4 8 8 3 8 -4 0 38 66 93 148
95 141 147 210 265 355 61 75 100 125 150 192 33 44 63 82 66 85 7 6 90 116
104 138 6 8 19 26 30 39 40 48 145 199 162 233 10 19 20 37 23 40 15 13 63
130 84 204 81 278 38 530 -138 821 -27 43 -54 85 -62 92 -25 25 -124 240 -144
313 -29 106 -35 160 -34 285 1 119 18 200 79 380 29 86 41 147 70 355 3 20 7
45 9 57 4 18 -3 24 -41 37 -26 9 -49 16 -53 16 -3 0 -18 -33 -32 -72z"/>
<path d="M9161 11523 c-14 -37 -27 -103 -25 -128 9 -90 40 -184 75 -221 10
-11 19 -25 19 -31 0 -6 3 -13 8 -15 4 -1 27 -28 52 -58 25 -30 49 -60 55 -66
9 -10 78 -90 124 -144 70 -82 83 -96 95 -110 7 -8 33 -37 56 -65 82 -97 145
-170 190 -220 25 -28 65 -75 90 -104 24 -29 60 -71 80 -92 l36 -40 40 16 c21
9 48 20 59 25 11 4 41 16 68 26 26 9 47 23 47 30 0 8 -4 14 -8 14 -4 0 -37 35
-72 78 -36 42 -67 79 -70 82 -3 3 -30 34 -60 70 -30 36 -59 70 -65 76 -5 6
-30 35 -55 64 -25 30 -54 64 -65 76 -20 22 -73 84 -116 134 -11 14 -37 45 -57
69 -21 24 -49 56 -63 72 -14 15 -39 44 -55 65 -16 20 -38 46 -50 58 -11 12
-43 48 -70 81 -27 33 -58 69 -69 81 -11 11 -38 42 -59 68 -22 26 -54 64 -73
84 -18 21 -33 40 -33 45 0 17 -18 5 -29 -20z"/>
<path d="M13529 11522 c0 -9 -2 -26 -4 -37 -2 -11 -7 -60 -10 -110 -8 -113
-14 -180 -15 -180 -3 0 -9 -42 -14 -90 -3 -27 -7 -61 -10 -75 -3 -14 -8 -56
-11 -95 -4 -38 -9 -86 -11 -105 -2 -19 -5 -62 -7 -95 -1 -33 -6 -65 -10 -72
-4 -6 -3 -14 2 -18 6 -3 7 -13 4 -22 -7 -19 -10 -363 -3 -363 3 0 5 -17 6 -38
1 -46 12 -197 14 -197 2 0 7 -32 14 -90 3 -27 8 -61 10 -75 45 -207 54 -243
98 -380 57 -177 140 -361 239 -529 71 -122 73 -125 80 -131 3 -3 20 -27 39
-55 18 -27 49 -72 68 -100 87 -128 154 -316 153 -430 -1 -93 -21 -221 -39
-250 -4 -5 -8 -19 -9 -30 -5 -29 -80 -163 -126 -225 -61 -81 -111 -132 -217
-222 -52 -44 -105 -88 -117 -98 -12 -10 -24 -16 -27 -13 -3 4 -6 2 -6 -4 0 -5
-25 -27 -57 -49 -31 -21 -61 -43 -67 -49 -6 -5 -31 -23 -55 -39 -25 -16 -50
-33 -55 -38 -6 -5 -69 -49 -141 -98 -71 -49 -134 -93 -140 -97 -5 -5 -32 -24
-60 -43 -49 -33 -72 -51 -120 -98 -13 -12 -27 -22 -31 -22 -3 0 -19 -14 -34
-32 l-27 -31 24 -28 25 -28 51 37 c29 20 57 40 62 45 6 4 87 62 180 128 94 66
178 126 188 134 9 8 19 15 22 15 5 0 161 112 220 157 17 13 35 27 40 31 21 15
170 127 185 139 8 7 42 34 75 60 139 110 210 183 274 279 44 65 85 153 97 209
23 98 23 251 1 345 -2 8 -7 32 -12 53 -4 20 -11 37 -17 37 -5 0 -7 4 -4 9 13
21 -84 220 -314 646 -15 28 -52 95 -82 150 -31 55 -72 131 -91 168 -19 37 -39
73 -44 80 -8 10 -49 101 -88 192 -24 55 -72 225 -81 285 -20 135 -25 312 -11
420 8 67 62 335 83 410 24 86 96 314 102 325 4 6 7 16 8 23 2 8 6 21 10 30 12
29 16 65 17 134 0 54 -5 75 -26 111 -29 50 -74 91 -124 115 -18 9 -33 18 -33
22 0 3 -9 6 -20 7 -12 1 -20 -5 -21 -15z"/>
<path d="M7844 11398 c-5 -7 -9 -17 -10 -23 -1 -5 -16 -49 -33 -97 -28 -78
-61 -203 -76 -283 -2 -16 -7 -43 -10 -60 -10 -57 -37 -140 -62 -195 -48 -106
-71 -223 -69 -350 4 -156 27 -237 127 -455 12 -27 24 -54 25 -60 1 -5 22 -53
47 -105 138 -296 160 -374 160 -575 1 -95 -4 -136 -22 -200 -23 -79 -95 -237
-112 -243 -5 -2 -9 -9 -9 -16 0 -7 -8 -21 -17 -32 -10 -10 -36 -42 -57 -69
-22 -28 -200 -210 -396 -405 -195 -195 -393 -397 -440 -449 -47 -51 -92 -101
-101 -110 -13 -13 -181 -212 -268 -317 -63 -75 -131 -188 -122 -203 2 -2 -2
-7 -7 -10 -6 -3 -17 -32 -25 -63 -18 -71 -16 -150 8 -248 3 -14 8 -36 11 -50
6 -28 115 -455 138 -540 8 -30 24 -89 36 -130 11 -41 22 -82 24 -90 3 -8 14
-51 26 -95 21 -75 24 -90 34 -133 2 -9 12 -46 21 -82 9 -36 19 -74 21 -84 12
-61 71 -217 126 -329 50 -103 81 -194 97 -284 9 -51 1 -348 -9 -348 -1 0 -3
-16 -5 -35 -2 -19 -4 -35 -5 -35 -1 0 -3 -9 -4 -20 -13 -92 -19 -122 -50 -240
-37 -148 -129 -421 -147 -439 -5 -6 -9 -15 -9 -22 0 -6 -8 -29 -17 -50 -9 -22
-17 -41 -18 -44 -5 -27 -335 -691 -355 -715 -5 -7 -23 -37 -38 -68 -29 -56
-29 -57 -11 -87 10 -16 20 -30 21 -30 2 0 38 13 81 29 42 16 77 27 77 25 0 -2
24 9 53 25 54 30 79 61 139 171 20 36 48 88 64 115 40 72 194 379 226 450 15
33 42 92 59 130 18 39 33 72 34 75 1 3 9 23 19 45 40 89 87 251 101 345 4 25
9 59 12 75 6 39 6 271 -1 310 -2 17 -8 50 -11 75 -5 37 -17 92 -39 175 -12 49
-108 318 -136 380 -4 11 -34 85 -65 165 -31 80 -65 165 -75 190 -74 183 -150
463 -166 615 -2 22 -6 67 -10 100 -12 121 -6 353 12 450 3 17 7 39 8 50 2 11
6 34 10 50 3 17 8 41 11 54 10 53 55 197 82 261 3 8 7 17 8 20 17 51 84 187
133 270 42 71 145 223 167 246 5 6 21 26 35 44 48 64 107 126 326 350 272 276
284 289 284 297 0 3 6 11 14 17 20 17 209 255 242 306 16 25 32 47 35 50 7 6
110 191 113 205 2 6 6 17 9 25 36 91 48 153 51 254 5 174 -49 326 -247 697
-111 209 -148 347 -141 523 4 86 5 96 24 166 7 25 14 52 16 60 1 8 22 72 46
141 24 69 44 131 45 137 3 14 12 67 17 100 3 15 8 47 12 72 4 25 8 52 9 60 2
8 6 34 10 56 8 44 9 43 -60 60 -5 1 -17 5 -26 9 -10 3 -21 1 -25 -7z"/>
<path d="M1508 11367 c-15 -12 -15 -17 7 -59 13 -25 21 -49 18 -52 -4 -3 0 -6
7 -6 7 0 10 -3 7 -7 -4 -3 -3 -11 3 -18 15 -18 98 -237 110 -290 38 -171 9
-302 -103 -454 -54 -74 -57 -77 -247 -274 -198 -204 -191 -196 -262 -278 -116
-134 -168 -295 -133 -410 12 -40 58 -133 72 -147 7 -7 13 -18 13 -23 0 -6 86
-95 190 -199 105 -104 190 -196 190 -204 0 -9 4 -16 10 -16 5 0 13 -12 16 -27
4 -16 11 -33 15 -39 27 -34 7 -139 -39 -204 -22 -31 -153 -147 -191 -170 -12
-7 -12 -11 -2 -24 11 -14 20 -13 76 9 52 19 170 77 244 120 27 16 104 78 124
100 17 19 37 57 42 80 2 6 4 15 6 20 4 14 -11 76 -26 105 -20 37 -99 117 -195
195 -47 38 -87 72 -90 75 -3 3 -25 21 -50 41 -182 147 -271 299 -256 437 6 60
67 202 86 202 5 0 10 6 10 13 0 10 135 157 145 157 2 0 15 10 27 23 13 12 55
49 93 82 227 196 298 273 352 379 34 67 44 107 48 186 3 62 -9 143 -25 165 -4
6 -13 28 -20 50 -11 36 -151 316 -212 425 -29 50 -36 55 -60 37z"/>
<path d="M1222 11325 c17 -64 20 -94 21 -205 1 -118 -4 -155 -27 -220 -10 -25
-18 -50 -19 -56 -2 -7 -8 -18 -14 -25 -6 -8 -14 -25 -18 -39 -4 -13 -15 -36
-25 -50 -36 -54 -85 -125 -92 -135 -24 -31 -115 -142 -128 -155 -8 -9 -37 -43
-65 -75 -27 -32 -55 -63 -60 -69 -6 -6 -30 -36 -55 -66 -25 -30 -51 -61 -57
-68 -7 -7 -13 -17 -13 -20 0 -4 -10 -18 -23 -32 -12 -14 -38 -47 -57 -75 -19
-27 -37 -52 -40 -55 -32 -28 -102 -162 -121 -230 -19 -70 -20 -70 -20 -155 0
-140 44 -244 186 -440 148 -203 197 -327 173 -440 -11 -54 -12 -57 -26 -82 -7
-13 -9 -23 -5 -23 4 0 3 -4 -3 -8 -6 -4 -24 -27 -41 -52 -28 -42 -185 -202
-278 -284 -134 -119 149 30 328 172 57 46 122 111 153 154 29 38 37 60 41 108
10 110 -20 187 -168 422 -151 242 -189 333 -195 468 -2 47 1 103 7 125 5 22
12 49 14 60 10 41 66 143 114 206 49 66 110 133 256 284 44 46 105 111 135
145 30 34 65 72 76 85 223 246 257 473 113 745 -22 41 -49 86 -59 100 l-19 25
11 -40z"/>
<path d="M1050 11117 c-46 -72 -131 -203 -187 -289 -57 -87 -103 -162 -103
-168 0 -5 -4 -10 -10 -10 -5 0 -10 -7 -10 -15 0 -8 -4 -15 -10 -15 -5 0 -10
-7 -10 -15 0 -8 -4 -15 -10 -15 -5 0 -10 -4 -10 -9 0 -14 -153 -243 -236 -353
-128 -168 -245 -363 -258 -426 -1 -9 -6 -26 -10 -37 -14 -37 -17 -50 -24 -95
-11 -76 -5 -212 10 -270 9 -30 17 -61 19 -69 4 -12 76 -161 104 -213 5 -10 13
-18 17 -18 5 0 8 -4 8 -9 0 -5 15 -34 34 -66 37 -60 79 -172 71 -186 -3 -4 -1
-10 5 -14 10 -6 11 -162 1 -180 -3 -5 -7 -19 -8 -30 -6 -39 -66 -147 -123
-223 -53 -69 -84 -105 -206 -234 -20 -21 -32 -38 -28 -38 28 0 220 122 296
188 252 221 329 374 284 566 -22 92 -68 178 -172 316 -132 175 -172 274 -167
411 3 105 14 150 55 234 17 33 93 154 121 190 26 35 66 87 87 115 14 18 33 43
43 54 9 12 58 73 108 136 49 63 101 128 114 144 14 15 25 30 25 33 0 3 22 31
48 62 117 136 235 340 249 433 11 71 8 161 -6 206 -8 23 -17 42 -20 42 -3 0
-44 -60 -91 -133z"/>
<path d="M13847 11172 c-62 -134 -102 -238 -96 -245 2 -2 -1 -10 -8 -18 -6 -8
-14 -26 -16 -39 -3 -14 -10 -36 -15 -50 -5 -14 -10 -29 -11 -35 -1 -5 -6 -28
-12 -50 -13 -46 -16 -64 -25 -119 -3 -22 -7 -43 -9 -46 -18 -30 -27 -416 -12
-540 16 -134 80 -380 132 -505 39 -95 119 -259 154 -315 12 -19 27 -47 33 -62
7 -16 16 -28 20 -28 4 0 8 -4 8 -9 0 -5 32 -56 70 -114 39 -58 70 -109 70
-115 0 -6 3 -12 8 -14 21 -9 183 -379 217 -497 51 -172 34 -365 -45 -530 -23
-47 -44 -88 -48 -91 -4 -3 -21 -25 -37 -50 -53 -78 -345 -360 -374 -360 -5 0
-11 -4 -13 -9 -3 -9 -221 -166 -308 -221 -30 -19 -59 -38 -65 -43 -5 -4 -53
-36 -105 -70 -254 -165 -452 -299 -486 -329 -20 -18 -48 -43 -61 -54 -27 -25
-29 -37 -8 -54 12 -10 32 0 112 52 53 34 147 95 207 135 61 39 116 75 121 80
6 4 48 33 95 63 47 30 87 57 90 60 3 3 43 30 90 60 47 30 87 57 90 60 3 3 73
50 155 105 151 100 350 244 415 300 250 215 361 417 362 655 1 169 -32 282
-149 515 -142 280 -249 484 -411 780 -44 80 -134 261 -139 280 -2 6 -19 56
-38 113 -33 98 -39 117 -50 180 -3 15 -7 36 -10 47 -17 77 -23 281 -11 380 8
63 32 200 36 200 1 0 3 8 5 17 4 23 24 88 35 113 23 55 35 91 32 98 -1 4 3 7
10 7 6 0 9 3 5 6 -3 3 21 57 53 119 82 157 84 202 11 243 l-38 21 -36 -77z"/>
<path d="M1432 11178 c38 -121 41 -265 8 -389 -15 -54 -59 -151 -74 -161 -6
-4 -7 -8 -3 -8 17 0 -110 -158 -210 -260 -142 -147 -190 -198 -293 -317 -82
-94 -160 -202 -160 -222 0 -4 -7 -21 -15 -38 -37 -73 -41 -208 -10 -303 8 -25
15 -49 14 -54 0 -5 3 -12 8 -15 4 -3 20 -31 36 -61 15 -30 35 -67 45 -82 9
-15 35 -55 56 -90 22 -35 43 -64 48 -66 4 -2 8 -8 8 -14 0 -5 10 -24 23 -41
44 -63 107 -184 115 -222 3 -11 5 -47 6 -81 1 -77 -40 -165 -116 -245 -29 -31
-62 -67 -73 -80 l-20 -22 25 7 c14 4 32 8 40 11 70 17 244 109 338 177 107 79
139 179 88 280 -29 60 -46 79 -230 269 -135 139 -176 185 -176 195 0 3 -9 19
-20 34 -34 48 -67 151 -69 218 -2 64 33 212 50 212 5 0 9 5 9 11 0 21 76 124
146 198 38 41 134 140 214 221 163 166 193 198 236 255 30 41 72 120 79 152 3
10 9 36 15 58 20 79 5 237 -31 315 -68 148 -135 246 -107 158z"/>
<path d="M7567 11113 c-20 -27 -50 -64 -67 -83 -75 -85 -154 -237 -174 -333
-3 -12 -8 -33 -11 -47 -8 -34 -14 -67 -22 -120 -9 -58 -9 -264 0 -312 4 -21
10 -54 13 -74 14 -87 83 -258 155 -384 33 -59 99 -203 104 -229 2 -9 4 -16 5
-16 2 0 2 0 30 -110 24 -92 33 -268 19 -360 -5 -33 -21 -98 -35 -145 -15 -47
-27 -87 -27 -90 -1 -3 -18 -36 -39 -74 -21 -38 -38 -73 -38 -77 0 -5 -4 -9 -8
-9 -5 0 -14 -10 -19 -23 -17 -37 -129 -171 -207 -248 -86 -86 -381 -334 -490
-413 -15 -11 -36 -27 -46 -35 -10 -9 -74 -54 -142 -101 -150 -104 -201 -153
-235 -226 -31 -67 -38 -120 -29 -206 11 -96 18 -101 67 -48 22 25 75 82 116
127 41 45 84 92 95 105 159 185 389 412 573 569 22 19 45 39 51 44 6 6 46 42
90 80 142 127 262 253 324 343 14 20 30 42 35 48 6 6 19 27 30 47 11 20 23 37
27 37 5 0 8 8 8 19 0 10 7 24 15 31 8 6 14 15 13 18 -1 4 8 30 21 57 25 55 59
173 67 232 3 21 6 81 6 133 0 83 -3 112 -16 190 -9 56 -20 97 -29 108 -5 6 -7
12 -4 12 14 0 -88 221 -139 301 -77 122 -137 273 -159 397 -16 89 -14 247 4
322 12 53 56 185 68 202 4 7 8 15 8 18 1 3 10 23 22 45 26 51 37 93 49 175 3
25 9 62 14 82 8 40 2 50 -35 62 -17 5 -29 -4 -58 -41z"/>
<path d="M13990 10948 c-29 -62 -55 -115 -59 -118 -3 -3 -7 -9 -8 -15 -1 -5
-16 -46 -34 -90 -17 -44 -35 -89 -40 -100 -8 -22 -34 -129 -45 -185 -8 -43 -7
-196 1 -230 3 -14 8 -35 11 -48 13 -62 106 -332 144 -417 5 -11 29 -67 54
-126 24 -58 56 -130 69 -160 14 -29 34 -74 45 -99 85 -193 104 -232 329 -670
61 -117 128 -271 138 -315 3 -11 11 -47 19 -80 15 -57 16 -242 3 -305 -37
-179 -124 -319 -319 -512 -96 -96 -128 -133 -105 -122 17 8 40 17 50 21 9 3
17 9 17 14 0 5 5 9 12 9 23 0 206 131 285 205 45 42 100 104 122 138 23 34 44
67 49 72 4 6 18 35 30 65 20 52 28 79 37 126 2 10 4 19 5 19 7 0 4 177 -2 181
-5 3 -6 9 -3 14 13 21 -36 172 -105 325 -17 39 -32 72 -33 75 -1 3 -18 36 -39
74 -21 38 -38 74 -38 80 0 7 -4 16 -9 22 -7 8 -94 177 -363 704 -43 85 -79
156 -79 157 0 3 -49 113 -81 183 -33 72 -85 219 -101 290 -31 129 -36 167 -35
285 1 179 41 314 139 479 59 98 68 143 32 157 -13 5 -28 9 -32 9 -5 0 -32 -51
-61 -112z"/>
<path d="M1830 11014 c0 -5 9 -28 19 -50 56 -117 75 -283 44 -387 -20 -69 -76
-176 -113 -217 -88 -98 -113 -122 -261 -250 -92 -80 -166 -149 -213 -198 -178
-189 -193 -355 -47 -539 39 -50 103 -109 350 -320 123 -106 163 -164 163 -239
0 -48 -20 -90 -64 -137 -40 -41 -112 -97 -126 -97 -6 0 -12 -4 -14 -8 -1 -4
-47 -37 -100 -72 -54 -36 -98 -68 -98 -71 0 -9 34 -7 48 4 6 5 12 6 12 3 0 -4
12 0 28 8 34 20 85 40 95 38 4 -1 7 2 7 8 0 5 7 10 15 10 8 0 23 4 33 9 9 5
53 26 97 47 120 57 198 113 223 160 53 100 -8 204 -234 399 -131 112 -290 279
-327 343 -45 77 -51 99 -51 184 1 56 6 75 34 125 18 32 41 65 51 74 11 9 19
19 19 23 0 8 63 65 141 126 35 28 75 59 88 70 13 11 31 25 41 30 10 6 24 16
32 22 7 7 40 33 73 58 110 83 148 119 209 197 25 31 43 60 40 65 -3 4 -1 8 4
8 9 0 17 19 29 65 7 28 7 145 0 174 -10 37 -48 112 -81 161 -38 55 -165 189
-166 174z"/>
<path d="M14133 10862 c-13 -26 -34 -74 -48 -107 -15 -33 -30 -69 -35 -80 -17
-37 -39 -135 -45 -195 -2 -19 -4 -36 -5 -37 -6 -8 -3 -50 4 -61 4 -6 4 -12 -1
-12 -4 0 -7 -15 -6 -32 1 -18 2 -33 3 -33 1 0 3 -13 5 -30 12 -97 20 -130 52
-225 19 -58 39 -109 44 -115 5 -5 9 -17 9 -27 0 -10 4 -18 9 -18 5 0 13 -10
17 -22 15 -50 354 -739 376 -765 6 -7 7 -13 2 -13 -5 0 -4 -4 1 -8 12 -8 285
-550 289 -572 1 -8 11 -40 23 -70 62 -164 77 -379 34 -512 -58 -181 -182 -339
-387 -492 -49 -37 -97 -73 -106 -81 -10 -8 -18 -12 -18 -9 0 3 -13 -5 -29 -18
-16 -12 -82 -57 -147 -99 -66 -42 -175 -113 -244 -158 -69 -44 -132 -85 -140
-90 -95 -62 -418 -278 -428 -288 -8 -7 -23 -18 -34 -24 -11 -6 -27 -17 -36
-24 -9 -8 -62 -47 -118 -88 -248 -183 -375 -359 -420 -582 -6 -31 -6 -167 1
-195 3 -14 8 -38 10 -54 10 -49 63 -180 100 -240 19 -32 35 -62 35 -66 0 -5 3
-10 8 -12 4 -1 34 -39 67 -83 79 -105 105 -131 260 -255 72 -58 137 -110 145
-117 8 -6 56 -45 106 -85 49 -40 107 -86 129 -103 21 -16 54 -43 75 -60 20
-16 51 -41 69 -55 18 -14 39 -31 46 -38 8 -7 34 -27 58 -46 24 -18 52 -40 63
-49 10 -9 60 -48 109 -88 50 -39 93 -76 96 -81 4 -6 21 -7 40 -3 73 14 73 14
32 46 -21 17 -45 36 -54 43 -9 7 -76 62 -150 121 -74 59 -143 114 -154 123
-11 10 -49 40 -85 67 -36 28 -67 52 -70 55 -3 3 -21 17 -40 31 -19 15 -45 35
-57 45 -12 11 -30 26 -40 34 -153 123 -341 299 -429 400 -82 95 -164 236 -203
347 -18 54 -37 176 -35 223 14 267 192 528 524 769 30 22 60 44 66 48 5 4 19
13 30 20 10 7 94 60 187 118 92 58 170 105 172 105 3 0 11 5 18 10 7 6 64 43
127 82 134 83 343 218 350 227 3 3 13 11 22 16 57 33 365 264 419 314 10 9 42
36 71 61 114 95 193 224 212 345 2 17 5 32 6 35 2 6 -1 72 -5 115 -4 37 -14
80 -29 120 -14 36 -68 169 -87 211 -10 23 -21 53 -25 67 -3 15 -12 31 -20 38
-8 6 -14 17 -14 24 0 29 -305 646 -342 693 -6 6 -7 12 -2 12 5 0 4 4 -1 8 -10
7 -37 58 -160 302 -160 318 -246 543 -260 685 -3 22 -8 53 -11 70 -8 35 -7
208 0 245 3 13 8 42 12 65 3 22 18 78 34 125 15 47 26 88 23 93 -2 4 -14 7
-26 7 -16 0 -28 -13 -44 -48z"/>
<path d="M14283 10782 c-28 -3 -33 -8 -35 -30 -2 -38 -5 -69 -15 -127 -9 -59
-10 -197 -1 -240 3 -16 13 -61 22 -100 9 -38 19 -77 20 -85 27 -112 113 -356
153 -432 8 -16 12 -28 9 -28 -5 0 230 -469 271 -540 26 -47 84 -154 146 -270
27 -52 53 -99 57 -105 4 -5 41 -75 83 -155 139 -268 188 -427 181 -590 -1 -47
-5 -92 -7 -100 -23 -92 -78 -213 -108 -240 -3 -3 -12 -15 -21 -28 -26 -39
-110 -124 -168 -172 -30 -25 -57 -48 -60 -51 -3 -3 -32 -25 -65 -49 -33 -24
-61 -47 -63 -52 -2 -4 -8 -8 -13 -8 -5 0 -41 -22 -81 -49 -96 -63 -268 -171
-274 -171 -3 0 -10 -5 -17 -10 -23 -20 -198 -130 -207 -130 -4 0 -10 -4 -12
-8 -1 -5 -100 -73 -218 -153 -118 -79 -221 -149 -230 -156 -8 -7 -49 -37 -90
-67 -41 -30 -79 -59 -85 -63 -5 -4 -41 -33 -80 -63 -206 -162 -301 -272 -355
-413 -58 -149 -52 -326 17 -474 14 -32 27 -61 27 -65 1 -4 7 -13 14 -19 6 -7
12 -19 12 -26 0 -7 4 -13 9 -13 5 0 11 -8 13 -17 5 -19 123 -185 168 -238 14
-16 72 -77 130 -135 99 -99 153 -147 245 -220 22 -17 47 -36 55 -43 56 -46
423 -297 434 -297 2 0 32 -19 66 -41 61 -42 62 -42 81 -22 20 20 20 20 -15 44
-20 13 -36 27 -36 32 0 4 -5 7 -11 7 -6 0 -16 6 -23 12 -7 7 -35 32 -62 55
-27 23 -59 50 -71 60 -25 21 -23 20 -188 153 -72 58 -141 114 -155 126 -206
175 -342 310 -423 419 -20 28 -42 56 -48 63 -23 27 -88 159 -108 220 -96 285
26 580 345 831 151 120 441 321 462 321 6 0 12 4 14 9 2 5 17 17 34 27 47 28
358 228 364 234 3 3 28 19 55 36 501 310 657 415 737 497 94 97 96 105 93 378
-2 123 -7 256 -10 294 -4 39 -8 85 -9 102 0 18 -5 33 -9 33 -5 0 -6 4 -3 9 14
22 -92 323 -123 351 -3 3 -13 17 -21 32 -8 15 -47 80 -87 145 -132 218 -255
452 -376 713 -19 41 -45 98 -58 125 -12 28 -24 55 -25 60 -1 6 -18 49 -37 97
-34 82 -72 203 -83 258 -3 14 -9 39 -13 55 -17 57 -32 182 -35 292 -3 91 -8
119 -28 159 -21 45 -25 49 -55 46z"/>
<path d="M7170 10616 c-109 -112 -144 -194 -143 -336 1 -109 13 -167 88 -415
20 -66 38 -127 40 -135 2 -8 20 -67 40 -130 73 -236 94 -403 72 -578 -22 -170
-107 -358 -231 -507 -37 -45 -67 -75 -191 -192 -38 -35 -118 -105 -169 -145
-11 -10 -27 -23 -35 -30 -8 -7 -35 -30 -60 -51 -25 -21 -73 -62 -105 -90 -33
-29 -65 -56 -72 -62 -22 -17 -114 -146 -114 -158 1 -18 48 -49 63 -41 13 8
248 195 257 204 3 3 25 21 50 40 25 19 47 38 48 42 2 5 10 8 18 8 8 0 14 4 14
9 0 5 26 28 58 52 31 24 59 46 62 49 3 3 34 30 70 60 134 113 245 216 317 292
42 44 54 57 96 107 31 38 87 121 87 130 0 4 8 19 19 32 10 13 33 67 52 119 31
90 33 102 33 235 0 150 -15 233 -70 380 -4 11 -8 26 -10 33 -1 8 -10 30 -20
50 -10 20 -19 42 -20 48 -1 6 -16 42 -34 80 -17 38 -45 103 -62 144 -17 41
-34 84 -38 95 -23 54 -66 201 -76 255 -11 64 -14 299 -4 305 6 4 8 10 6 14 -3
4 2 36 10 71 8 34 13 65 11 67 -2 2 -28 -21 -57 -51z"/>
<path d="M14465 10535 c9 -93 14 -121 46 -255 17 -69 32 -132 34 -140 12 -53
128 -362 177 -470 45 -99 127 -259 171 -333 26 -43 47 -81 47 -83 0 -4 44 -66
149 -211 21 -29 35 -29 20 0 -7 12 -12 24 -11 27 2 7 -8 51 -15 70 -4 8 -7 18
-8 23 -2 4 -3 8 -5 10 -2 2 -5 17 -14 55 -3 13 -14 50 -26 82 -12 32 -23 67
-25 77 -9 45 -139 394 -198 533 -6 14 -11 27 -12 30 -29 83 -208 433 -297 580
l-39 65 6 -60z"/>
<path d="M6880 10163 c-17 -21 -43 -63 -58 -93 -24 -50 -26 -65 -26 -165 1
-75 8 -140 23 -205 33 -142 53 -257 56 -330 2 -36 4 -67 5 -70 7 -16 5 -149
-2 -167 -5 -14 -4 -23 3 -23 6 0 7 -4 4 -10 -3 -5 -8 -31 -11 -57 -16 -138
-101 -409 -137 -434 -5 -3 -8 -9 -7 -13 4 -11 -83 -145 -137 -213 -27 -32 -91
-102 -143 -154 -65 -64 -103 -111 -120 -147 l-24 -54 24 -19 c34 -26 40 -24
86 19 23 20 67 60 99 87 33 28 69 59 81 70 13 11 49 43 80 70 65 56 214 205
256 254 84 100 193 300 214 394 1 4 2 8 4 10 2 3 9 34 14 67 3 14 8 43 12 65
10 56 5 295 -6 295 -4 0 -7 10 -7 23 -2 38 -15 92 -24 103 -5 6 -7 13 -4 16 3
2 -9 51 -25 109 -17 57 -32 113 -34 124 -3 11 -12 38 -21 60 -10 22 -17 42
-17 45 -1 8 -4 18 -51 170 -25 80 -49 157 -53 173 -10 41 -19 41 -54 0z"/>
<path d="M2200 10136 c-8 -8 -53 -42 -100 -75 -47 -34 -100 -73 -119 -88 -19
-16 -39 -30 -45 -32 -6 -2 -13 -7 -16 -10 -3 -3 -38 -32 -77 -64 -91 -72 -119
-102 -145 -151 -22 -43 -31 -123 -15 -143 5 -7 7 -13 3 -13 -4 0 2 -17 13 -38
21 -42 139 -165 265 -277 44 -38 84 -74 90 -80 43 -39 153 -133 163 -139 7 -4
25 5 42 20 l29 26 -44 71 c-24 40 -78 115 -119 167 -106 133 -129 185 -130
281 0 48 6 87 15 105 26 52 82 128 129 177 43 44 139 198 140 224 1 11 -45 53
-58 53 -4 0 -13 -7 -21 -14z"/>
<path d="M2203 9788 c-110 -91 -144 -199 -94 -301 19 -40 115 -147 131 -147 5
0 9 108 9 240 1 132 0 240 -3 240 -2 0 -22 -15 -43 -32z"/>
<path d="M6635 9708 c-4 -24 -9 -47 -11 -53 -1 -5 -5 -20 -8 -33 -24 -108 -80
-349 -92 -397 -9 -33 -18 -71 -19 -85 -2 -14 -14 -65 -25 -115 -12 -49 -24
-101 -26 -115 -3 -14 -16 -67 -29 -119 -13 -52 -22 -98 -19 -103 3 -4 1 -8 -5
-8 -5 0 -8 -8 -6 -17 1 -10 -1 -22 -5 -28 -5 -5 -8 -13 -8 -18 -1 -6 -20 -100
-27 -127 -1 -5 -22 -100 -31 -140 -15 -71 -15 -72 -2 -61 190 155 266 244 347
407 39 78 95 234 87 242 -3 2 -1 15 5 29 13 35 21 105 22 203 1 96 -11 240
-22 255 -4 6 -8 23 -10 39 -2 17 -14 62 -28 100 -14 39 -27 81 -30 94 -3 12
-9 22 -14 22 -5 0 -8 3 -7 8 2 9 -20 62 -25 62 -3 0 -8 -19 -12 -42z"/>
<path d="M12867 8565 c68 -137 91 -238 88 -396 -2 -88 -8 -149 -20 -209 -3
-14 -8 -41 -11 -60 -3 -19 -12 -52 -19 -72 -21 -62 -1 -52 67 32 95 118 134
217 132 340 -1 82 -6 106 -39 172 -42 83 -103 156 -209 248 -28 25 -28 25 11
-55z"/>
<path d="M2200 8592 c0 -5 -6 -9 -12 -9 -7 0 -51 -19 -98 -41 -120 -56 -191
-88 -263 -118 -34 -14 -104 -46 -156 -70 -51 -24 -99 -44 -106 -44 -7 0 -18
-7 -25 -15 -7 -8 -18 -15 -24 -15 -17 0 -346 -159 -411 -199 -22 -13 -40 -23
-40 -20 0 2 -23 -18 -51 -46 -90 -89 -138 -177 -160 -295 -5 -29 -15 -212 -14
-270 0 -8 0 -28 -1 -45 -5 -133 -2 -835 4 -930 5 -66 10 -147 12 -180 2 -33 7
-96 10 -140 4 -44 8 -111 10 -150 2 -38 4 -70 5 -70 1 0 3 -25 5 -55 8 -123
14 -218 19 -270 5 -53 8 -86 21 -265 3 -44 8 -105 11 -135 2 -30 6 -86 9 -125
2 -38 7 -108 11 -155 8 -118 11 -169 18 -295 4 -60 9 -146 12 -190 2 -44 7
-129 9 -190 6 -137 12 -213 19 -245 3 -14 10 -43 15 -65 22 -103 87 -229 157
-305 57 -63 65 -70 72 -70 4 0 21 -12 37 -28 37 -32 59 -46 145 -88 59 -29
223 -91 261 -99 8 -2 32 -10 52 -19 20 -8 37 -12 37 -8 0 3 5 1 12 -6 7 -7 18
-12 25 -12 6 0 40 -13 75 -29 35 -17 106 -48 158 -70 52 -22 123 -54 158 -70
34 -17 64 -31 67 -31 2 0 28 -11 57 -24 88 -40 189 -84 281 -124 26 -12 47
-19 47 -16 0 3 8 0 18 -5 19 -10 63 -19 130 -27 44 -5 50 0 56 43 2 12 -7 23
-28 33 -81 40 -436 199 -458 205 -5 2 -10 4 -13 5 -3 1 -8 3 -12 5 -5 1 -21 7
-38 14 -16 6 -77 30 -135 52 -58 22 -114 44 -125 48 -11 5 -74 30 -140 56
-159 63 -313 136 -367 173 -163 113 -248 283 -264 527 -9 139 -11 151 -18 163
-4 7 -2 12 4 12 6 0 9 4 5 9 -3 5 -7 40 -10 78 -5 70 -9 121 -20 258 -4 44 -9
100 -10 125 -2 25 -6 74 -10 110 -3 36 -7 90 -10 120 -2 30 -6 84 -10 120 -3
36 -8 90 -10 120 -2 30 -6 82 -9 115 -10 107 -16 169 -21 235 -3 36 -8 92 -10
125 -3 33 -8 92 -11 130 -2 39 -7 93 -9 120 -3 28 -7 84 -10 125 -3 41 -7 102
-10 135 -11 116 -13 151 -20 260 -3 61 -8 131 -10 157 -3 26 -7 98 -11 160 -3
62 -7 136 -9 163 -5 70 -18 469 -19 595 -2 149 10 244 40 320 49 125 114 195
228 245 l54 24 -75 -117 c-126 -197 -143 -240 -160 -402 -11 -115 -6 -401 12
-600 2 -25 6 -74 9 -110 3 -36 8 -94 11 -130 7 -70 9 -99 20 -225 3 -44 8 -96
10 -115 2 -19 7 -69 10 -110 3 -41 8 -93 11 -115 3 -22 7 -69 9 -105 3 -36 7
-85 10 -110 3 -25 7 -72 10 -105 3 -33 7 -87 10 -120 13 -132 16 -162 19 -217
2 -31 7 -80 10 -110 3 -29 8 -89 12 -133 3 -44 8 -98 10 -120 2 -22 6 -74 9
-115 3 -41 8 -95 10 -120 3 -25 7 -81 10 -125 3 -44 8 -114 10 -155 5 -70 8
-120 20 -340 10 -187 19 -259 34 -289 5 -9 6 -22 3 -29 -2 -8 0 -24 6 -35 5
-12 22 -53 37 -90 32 -79 88 -167 137 -217 54 -54 107 -100 116 -100 5 0 17
-9 27 -20 10 -11 23 -20 30 -20 6 0 17 -6 23 -12 7 -7 16 -13 20 -14 4 0 41
-17 82 -36 69 -32 242 -95 286 -103 10 -2 21 -4 24 -5 3 -1 8 -2 13 -1 4 0 7
-4 7 -9 0 -6 8 -10 18 -10 10 0 185 -83 391 -185 205 -102 385 -187 399 -190
92 -18 91 -18 98 11 4 16 3 29 -2 31 -5 2 -38 22 -74 45 -36 23 -67 42 -70 43
-3 0 -17 8 -32 18 -92 57 -98 61 -208 117 -36 19 -67 37 -70 40 -3 3 -81 43
-175 90 -338 168 -461 245 -567 352 -126 127 -180 251 -203 468 -3 30 -7 66
-10 80 -5 30 -16 130 -20 180 -2 19 -4 35 -5 35 -1 0 -3 18 -5 40 -2 22 -6 58
-9 80 -2 22 -7 63 -11 90 -3 28 -8 70 -11 95 -4 25 -8 59 -10 75 -1 17 -5 50
-9 75 -3 25 -7 66 -10 91 -2 26 -7 60 -9 75 -3 16 -8 56 -11 89 -2 33 -7 71
-10 85 -3 14 -7 50 -10 80 -3 30 -7 66 -10 80 -3 14 -7 50 -10 80 -2 30 -6 66
-9 80 -3 14 -7 49 -8 78 -1 28 -5 52 -8 52 -3 0 -6 17 -6 38 -1 20 -4 57 -8
82 -6 48 -13 108 -21 180 -2 25 -11 97 -20 160 -8 63 -17 135 -19 160 -3 25
-8 68 -11 95 -4 28 -8 64 -10 80 -16 132 -23 182 -30 236 -3 20 -8 56 -10 80
-3 24 -7 62 -10 84 -2 22 -7 65 -10 95 -3 30 -7 62 -10 70 -2 8 -7 46 -10 85
-4 38 -8 72 -10 75 -15 27 -24 298 -11 369 17 103 80 230 150 303 58 62 138
128 154 128 6 0 12 4 14 8 4 9 69 48 184 108 283 148 311 165 376 225 l48 44
-25 28 c-14 15 -25 24 -25 18 0 -6 -7 -8 -15 -5 -8 4 -15 1 -15 -5 0 -6 -5
-11 -11 -11 -6 0 -63 -22 -128 -48 -125 -53 -153 -64 -161 -67 -6 -2 -9 -3
-150 -63 -58 -24 -109 -45 -115 -46 -5 -2 -21 -8 -35 -14 -108 -45 -169 -68
-165 -62 7 11 155 100 165 100 5 0 10 4 12 9 6 17 272 150 403 201 209 82 255
103 255 111 0 23 -26 59 -42 59 -10 0 -18 -4 -18 -8z"/>
<path d="M8690 8313 c-18 -49 -37 -99 -43 -113 -6 -14 -11 -29 -13 -35 -2 -5
-10 -28 -18 -50 -8 -22 -15 -48 -16 -57 0 -10 -5 -18 -12 -18 -6 0 -9 -3 -5
-6 3 -3 -1 -25 -10 -47 -12 -35 -172 -500 -243 -707 -10 -30 -37 -105 -58
-167 -22 -61 -37 -114 -34 -117 3 -3 0 -6 -6 -6 -7 0 -11 -3 -11 -7 1 -5 0
-10 -1 -13 -1 -3 -3 -12 -5 -20 -1 -8 -19 -62 -40 -120 -20 -58 -38 -113 -40
-123 -2 -9 -7 -22 -10 -27 -3 -5 -8 -18 -10 -27 -2 -10 -29 -92 -60 -183 -32
-91 -58 -169 -60 -175 -1 -5 -7 -23 -13 -38 -7 -16 -12 -32 -12 -36 0 -5 -25
-84 -56 -177 -31 -93 -57 -173 -59 -179 -1 -5 -5 -17 -8 -25 -11 -28 -55 -205
-68 -275 -23 -125 -17 -438 12 -561 6 -27 13 -62 16 -79 3 -16 9 -38 14 -47 5
-10 7 -18 3 -18 -3 0 -1 -6 5 -13 6 -8 8 -16 5 -19 -3 -4 2 -20 11 -37 8 -17
13 -31 9 -31 -4 0 -2 -6 3 -12 5 -7 16 -32 23 -56 7 -24 18 -46 23 -49 6 -3 7
-1 4 4 -10 15 -25 111 -34 218 -9 94 -8 314 0 395 4 36 8 72 8 80 2 25 27 172
39 225 7 28 14 61 17 75 24 128 173 584 196 601 5 3 8 8 6 10 -3 6 11 49 33
99 31 70 44 100 74 175 15 39 31 74 36 79 4 6 8 16 8 23 0 7 11 36 24 65 14
29 37 82 51 118 14 36 30 74 35 85 34 76 48 115 42 115 -4 0 -2 4 3 8 8 6 40
81 49 117 2 6 8 21 13 35 27 66 116 341 128 394 2 12 14 62 26 111 35 149 49
229 65 366 9 78 12 359 4 359 -4 0 -22 -39 -40 -87z"/>
<path d="M2044 8166 c-275 -141 -342 -183 -434 -277 -75 -75 -139 -190 -167
-299 -21 -82 -23 -390 -3 -390 3 0 5 -12 6 -27 0 -26 10 -118 19 -173 8 -55
15 -107 21 -155 3 -27 8 -57 9 -65 2 -9 6 -43 10 -75 4 -33 9 -73 12 -90 3
-16 7 -43 8 -60 2 -16 6 -49 9 -72 3 -24 8 -62 11 -85 7 -59 15 -110 20 -137
2 -12 7 -49 10 -82 4 -33 8 -68 10 -77 4 -24 24 -181 41 -316 3 -27 8 -58 10
-70 2 -12 6 -46 10 -76 3 -30 7 -66 9 -80 2 -14 7 -47 10 -75 4 -27 8 -61 10
-75 2 -14 6 -52 9 -85 3 -33 8 -70 10 -82 3 -12 8 -53 11 -90 4 -37 9 -75 10
-83 2 -9 6 -43 10 -75 3 -33 8 -73 10 -90 2 -16 7 -57 10 -90 3 -33 8 -76 11
-95 3 -19 7 -62 10 -95 2 -32 7 -71 9 -86 3 -14 7 -57 10 -95 3 -38 8 -80 10
-94 2 -14 7 -50 10 -80 3 -30 7 -66 10 -80 3 -14 7 -39 10 -56 3 -18 19 -72
35 -120 17 -49 31 -95 32 -101 1 -7 4 -13 7 -13 3 0 12 -15 20 -32 44 -101
162 -232 281 -312 36 -24 139 -81 230 -127 91 -46 167 -87 168 -91 2 -5 8 -8
14 -8 5 0 48 -22 95 -50 47 -27 87 -50 90 -50 2 0 24 -13 48 -30 24 -16 46
-30 50 -30 10 0 170 -94 173 -102 2 -5 9 -8 15 -8 7 0 37 -15 67 -33 30 -18
93 -50 140 -71 47 -21 98 -45 114 -52 43 -21 55 -17 73 21 19 40 25 31 -97
135 -36 30 -67 58 -70 61 -14 17 -317 210 -505 322 -264 158 -459 343 -572
542 -46 83 -103 216 -103 243 0 10 -3 22 -7 26 -4 3 -8 12 -9 19 -2 13 -11 55
-20 97 -4 14 -7 45 -9 70 -2 25 -4 45 -5 45 -1 0 -3 23 -5 50 -19 220 -24 266
-56 450 -12 66 -23 129 -24 140 -2 11 -8 43 -14 70 -5 28 -12 70 -16 95 -4 24
-11 52 -15 61 -5 9 -7 19 -4 22 4 3 1 28 -5 54 -7 27 -14 64 -17 83 -3 19 -7
44 -9 55 -3 11 -6 31 -8 45 -5 31 -58 337 -62 359 -1 9 -6 36 -10 61 -4 25 -9
54 -11 65 -3 11 -6 36 -9 55 -3 19 -7 46 -10 60 -2 14 -7 41 -10 60 -5 33 -17
102 -29 178 -4 17 -8 47 -11 65 -3 17 -11 56 -16 86 -6 30 -12 64 -14 75 -6
49 -16 114 -25 161 -10 53 -18 109 -26 165 -2 19 -8 58 -14 85 -18 94 -24 150
-23 232 2 229 143 440 393 588 89 53 148 118 201 220 l44 86 -24 20 c-13 10
-28 19 -35 18 -6 0 -83 -38 -172 -83z"/>
<path d="M1080 8191 c-130 -36 -218 -88 -314 -185 -149 -152 -237 -351 -250
-566 -25 -412 -26 -1330 -1 -1685 2 -27 6 -97 10 -155 3 -58 8 -123 10 -145 2
-22 7 -71 10 -110 6 -69 9 -105 20 -215 4 -30 8 -75 10 -100 8 -79 15 -134 21
-170 3 -19 7 -51 9 -70 2 -19 7 -57 11 -85 3 -27 8 -59 9 -70 2 -11 4 -20 5
-20 1 0 3 -16 5 -35 2 -19 5 -48 8 -65 38 -223 49 -285 57 -315 5 -19 11 -53
14 -75 9 -65 43 -197 66 -256 30 -76 73 -159 82 -159 4 0 8 -6 8 -14 0 -22
125 -151 186 -191 31 -21 91 -53 134 -71 81 -35 260 -86 260 -75 0 10 -47 43
-97 68 -54 28 -87 47 -93 53 -3 3 -24 18 -48 34 -116 79 -210 205 -256 342
-28 86 -35 143 -41 329 -2 66 -6 147 -9 180 -5 58 -14 164 -22 270 -6 76 -13
209 -18 315 -7 137 -17 325 -21 400 -3 36 -7 117 -9 180 -3 63 -8 151 -11 195
-2 44 -7 130 -10 190 -3 61 -8 148 -11 195 -2 47 -6 132 -9 190 -6 121 -12
255 -20 390 -5 85 -10 194 -20 440 -4 125 -16 403 -17 409 0 3 0 8 1 11 1 3 4
35 6 72 2 37 8 75 13 85 5 10 8 23 5 28 -6 17 34 123 71 189 51 90 155 193
239 235 15 8 27 18 27 23 0 5 4 7 9 4 4 -3 17 1 27 9 23 18 23 18 -56 -4z"/>
<path d="M520 7990 c0 -9 -35 -65 -50 -80 -7 -7 -62 -88 -77 -114 -22 -38 -33
-68 -39 -105 -3 -20 -8 -39 -10 -42 -2 -4 -6 -24 -9 -45 -4 -22 -8 -46 -10
-54 -2 -8 -7 -31 -10 -50 -5 -32 -29 -159 -39 -205 -2 -11 -7 -40 -12 -65 -4
-25 -8 -47 -9 -50 0 -3 -4 -27 -9 -55 -9 -63 -14 -93 -21 -125 -3 -14 -8 -45
-11 -70 -3 -25 -7 -56 -10 -70 -2 -14 -6 -43 -9 -65 -3 -22 -8 -56 -10 -76 -3
-20 -8 -58 -10 -83 -3 -25 -8 -67 -11 -93 -32 -274 -37 -734 -10 -968 2 -16 7
-59 11 -95 5 -36 9 -76 11 -90 1 -14 3 -25 4 -25 1 0 3 -11 5 -25 2 -14 6 -38
9 -55 4 -16 9 -46 12 -65 3 -19 7 -41 10 -49 2 -8 7 -30 10 -50 3 -20 19 -94
35 -166 17 -71 37 -159 45 -195 8 -36 16 -72 19 -80 4 -15 30 -132 41 -179 3
-13 12 -51 20 -85 18 -71 43 -182 49 -211 2 -11 11 -51 19 -90 7 -38 16 -83
19 -100 36 -200 113 -329 257 -430 56 -39 192 -106 200 -98 3 3 -1 8 -8 10
-13 5 -87 79 -136 138 -73 86 -148 282 -161 420 -2 22 -4 40 -5 40 -2 0 -10
55 -14 105 -3 25 -7 61 -10 80 -3 19 -7 58 -10 85 -3 28 -8 61 -10 75 -3 14
-7 41 -10 60 -3 19 -14 91 -25 160 -12 69 -23 143 -26 165 -3 22 -8 51 -10 65
-8 44 -17 114 -20 150 -2 19 -6 53 -9 75 -3 22 -8 65 -12 95 -3 30 -7 66 -8
80 -2 14 -7 63 -10 110 -4 47 -9 101 -11 120 -3 32 -8 93 -20 265 -22 291 -22
900 0 1180 3 33 7 96 10 140 4 44 8 100 10 125 3 25 7 77 10 115 4 39 8 81 11
95 2 14 7 52 10 85 3 33 7 71 10 85 3 14 7 43 9 65 6 58 14 116 20 145 3 14 7
39 9 55 2 17 7 51 11 78 4 26 5 47 1 47 -3 0 -6 -5 -6 -10z"/>
<path d="M2200 7926 c-84 -32 -203 -110 -280 -186 -45 -44 -130 -171 -130
-194 0 -8 -4 -17 -9 -20 -4 -3 -12 -20 -16 -38 -4 -18 -9 -40 -11 -48 -16 -71
-21 -123 -19 -207 3 -96 13 -253 20 -303 6 -40 14 -102 20 -145 3 -22 7 -53 9
-70 3 -16 8 -46 11 -65 2 -19 11 -69 19 -110 8 -41 17 -91 20 -110 4 -19 22
-111 41 -205 18 -93 36 -184 38 -202 3 -17 7 -36 10 -40 3 -5 8 -29 11 -54 3
-24 10 -59 15 -77 5 -18 10 -35 10 -37 0 -3 2 -18 5 -33 3 -15 8 -43 11 -62 3
-19 12 -62 20 -95 7 -33 16 -78 19 -99 4 -21 9 -48 12 -60 3 -12 7 -34 9 -51
2 -16 4 -30 5 -30 1 0 4 -13 6 -30 3 -16 9 -52 14 -80 5 -27 12 -70 15 -95 4
-24 8 -47 10 -50 2 -4 6 -26 9 -51 3 -24 8 -55 10 -69 3 -14 12 -79 21 -145 9
-66 18 -133 20 -150 3 -16 7 -52 10 -80 12 -108 16 -141 21 -165 3 -14 8 -36
11 -50 7 -36 11 -54 13 -60 1 -3 2 -8 1 -12 -2 -15 68 -208 100 -273 83 -172
223 -341 389 -468 41 -31 80 -61 86 -66 10 -8 121 -76 186 -114 16 -10 37 -24
45 -32 8 -8 18 -15 23 -15 5 0 15 -6 22 -13 7 -6 54 -41 103 -77 50 -35 92
-67 95 -70 3 -3 55 -44 115 -90 61 -47 112 -88 113 -92 2 -5 8 -8 13 -8 6 0
31 -16 56 -35 46 -35 142 -71 218 -82 39 -5 41 -4 62 35 l21 41 -46 44 c-50
48 -177 167 -228 213 -17 16 -48 44 -70 63 -37 32 -62 51 -274 207 -142 105
-281 234 -366 340 -21 27 -45 56 -53 64 -31 31 -133 199 -176 285 -67 137
-121 299 -140 420 -2 11 -6 34 -9 50 -4 17 -9 50 -11 75 -3 25 -11 59 -17 75
-13 34 -107 178 -120 183 -4 2 -8 10 -8 18 0 12 -5 12 -37 -1 -20 -8 -38 -13
-41 -10 -3 2 0 33 6 67 10 64 9 330 -2 403 -10 62 -46 238 -53 255 -3 8 -8 24
-10 35 -2 11 -30 108 -62 215 -56 190 -82 274 -87 295 -11 39 -16 60 -34 140
-24 105 -28 123 -40 190 -5 28 -12 61 -15 75 -3 14 -7 37 -10 52 -2 15 -6 35
-9 45 -16 52 -35 203 -30 238 1 11 5 48 9 83 3 34 12 80 20 101 7 22 11 42 8
45 -4 3 -1 6 5 6 7 0 11 3 10 8 -4 22 61 138 115 202 16 19 52 58 79 87 86 92
118 201 100 346 -5 41 -3 41 -52 23z"/>
<path d="M234 7822 c-37 -65 -54 -97 -87 -172 -22 -52 -64 -179 -73 -225 -10
-51 -11 -54 -13 -57 -1 -2 -4 -18 -7 -35 -2 -18 -6 -48 -8 -65 -3 -18 -5 -33
-6 -33 -2 0 -6 -49 -15 -165 -3 -52 -6 -185 -5 -295 1 -110 2 -296 3 -412 2
-198 8 -229 21 -115 3 26 8 61 11 77 2 17 6 48 9 70 3 22 14 101 26 175 11 74
23 154 26 176 2 23 6 50 8 60 2 11 9 55 16 99 13 89 17 118 25 154 2 13 7 49
10 80 3 31 7 67 10 81 3 14 7 39 9 55 2 17 7 46 10 65 3 19 8 51 11 70 2 19 6
49 9 65 2 17 7 51 10 77 3 26 10 78 16 115 6 37 13 83 16 102 7 55 15 94 20
102 2 4 1 10 -4 13 -5 3 -26 -25 -48 -62z"/>
<path d="M15087 7455 c-92 -52 -172 -95 -177 -95 -6 0 -10 -4 -10 -9 0 -5 -8
-11 -17 -14 -10 -4 -39 -19 -64 -34 -25 -15 -98 -59 -163 -98 -64 -38 -129
-78 -144 -87 -15 -10 -36 -22 -47 -28 -11 -5 -73 -44 -138 -85 -66 -41 -123
-75 -128 -75 -5 0 -9 -4 -9 -8 0 -5 -12 -15 -27 -23 -16 -8 -32 -18 -38 -22
-5 -4 -80 -53 -165 -109 -240 -157 -416 -293 -532 -413 -47 -49 -149 -189
-152 -210 -1 -5 -5 -16 -9 -22 -13 -21 -46 -123 -40 -123 3 0 1 -6 -4 -12 -14
-19 -16 -176 -3 -233 16 -67 49 -154 72 -187 11 -16 16 -28 11 -28 -4 0 -3 -4
2 -8 6 -4 22 -25 36 -47 60 -92 234 -266 449 -449 63 -54 120 -105 126 -112 6
-8 15 -14 19 -14 4 0 24 -15 44 -32 20 -18 56 -49 81 -68 24 -19 90 -74 148
-122 57 -49 107 -89 111 -89 47 -8 73 -4 82 13 6 11 7 23 2 27 -4 4 -33 27
-63 52 -64 52 -94 77 -124 104 -12 11 -46 40 -76 65 -29 25 -58 50 -64 55 -6
6 -51 44 -101 85 -141 117 -313 280 -389 369 -253 297 -271 628 -51 917 135
176 399 381 809 629 18 11 92 56 165 100 145 88 134 81 246 148 44 26 87 52
95 57 8 5 83 51 165 101 145 88 207 139 220 180 4 10 10 19 15 19 4 0 10 7 14
15 3 8 2 15 -2 15 -4 0 -83 -43 -175 -95z"/>
<path d="M2185 7444 c-107 -128 -174 -366 -173 -614 0 -106 14 -248 31 -325
21 -92 51 -182 83 -253 13 -28 23 -55 23 -58 0 -4 3 -10 8 -13 5 -3 20 -25 33
-48 13 -24 27 -43 31 -43 4 0 8 313 8 695 0 382 -3 695 -7 695 -4 0 -20 -17
-37 -36z"/>
<path d="M15105 7295 c-72 -41 -137 -79 -145 -85 -8 -5 -69 -41 -135 -80 -66
-39 -127 -76 -135 -81 -8 -5 -54 -33 -102 -62 -275 -165 -622 -389 -648 -417
-3 -3 -21 -17 -40 -30 -19 -13 -40 -29 -46 -35 -7 -5 -30 -25 -52 -43 -181
-147 -302 -329 -328 -495 -7 -49 -7 -162 1 -194 3 -13 7 -32 10 -44 13 -59 62
-176 82 -197 7 -7 13 -20 13 -28 0 -8 4 -14 8 -14 5 0 18 -17 30 -37 34 -59
171 -206 278 -299 38 -32 76 -66 84 -74 17 -17 293 -241 349 -283 27 -20 53
-29 100 -34 l63 -6 -18 29 c-37 59 -69 100 -105 134 -20 19 -96 91 -169 160
-192 181 -264 255 -325 335 -11 14 -26 32 -32 40 -7 7 -13 16 -13 20 0 3 -11
21 -24 38 -23 31 -66 119 -80 164 -44 139 -42 256 4 394 17 51 38 101 46 110
8 8 14 19 14 23 0 40 303 356 342 356 6 0 8 3 5 7 -7 7 235 173 253 173 5 0
10 3 10 8 0 4 10 12 23 18 12 6 143 84 290 173 148 88 272 161 277 161 5 0 10
3 12 8 2 4 35 26 73 49 39 24 98 69 133 101 60 56 63 60 51 85 -7 15 -15 27
-18 27 -4 0 -65 -34 -136 -75z"/>
<path d="M8572 7107 c-51 -127 -95 -236 -96 -242 -3 -11 -8 -22 -62 -152 -20
-48 -37 -92 -39 -98 -1 -5 -7 -21 -12 -35 -6 -14 -26 -68 -46 -120 -20 -52
-43 -111 -51 -131 -8 -20 -12 -39 -9 -43 4 -3 2 -6 -4 -6 -5 0 -10 -6 -10 -12
0 -7 -24 -76 -52 -152 -55 -149 -187 -555 -196 -602 -2 -16 -7 -40 -10 -54
-23 -102 -29 -165 -29 -325 0 -149 10 -278 24 -315 1 -3 2 -8 2 -11 -1 -4 10
-48 24 -99 31 -118 86 -253 161 -400 32 -63 72 -144 87 -180 16 -36 48 -107
72 -158 24 -51 44 -95 44 -97 0 -3 14 -35 31 -72 49 -106 72 -158 74 -163 13
-50 122 -209 187 -273 10 -10 18 -22 18 -27 0 -17 22 -11 58 16 19 15 30 29
26 33 -5 3 -17 22 -26 41 -10 19 -28 53 -41 75 -13 22 -41 72 -62 110 -87 162
-119 214 -241 400 -140 214 -256 494 -288 695 -3 19 -8 46 -11 60 -23 111 -23
415 0 531 3 13 7 38 10 54 5 34 8 50 24 115 7 25 14 54 16 66 12 53 97 295
115 326 5 10 10 23 10 30 1 7 9 31 20 53 11 22 19 44 20 48 0 4 9 27 19 50 10
23 38 87 61 142 23 55 54 125 68 155 14 30 25 61 25 68 0 6 4 12 9 12 4 0 8 4
8 10 0 10 22 58 109 245 29 61 57 121 63 135 6 14 16 36 23 50 32 64 48 202
34 292 -10 61 -49 188 -58 188 -3 0 -48 -105 -99 -233z"/>
<path d="M15085 7110 c-55 -37 -197 -132 -315 -209 -118 -77 -222 -145 -230
-151 -57 -37 -352 -250 -423 -304 -113 -87 -232 -207 -220 -220 4 -3 2 -6 -4
-6 -14 0 -67 -103 -88 -170 -23 -73 -27 -214 -9 -287 53 -211 140 -331 491
-681 203 -202 247 -241 261 -233 9 6 13 11 9 11 -4 0 5 19 21 43 16 23 39 62
53 85 l24 44 -43 39 c-23 22 -42 42 -42 44 0 3 -22 26 -49 52 -39 39 -119 131
-181 210 -47 59 -122 206 -150 293 -26 79 -47 260 -30 260 3 0 6 15 6 33 7
134 106 311 264 466 47 46 186 158 246 199 68 45 213 139 292 187 10 6 37 24
61 40 24 17 51 35 60 40 36 23 109 104 143 160 l37 60 -32 33 c-17 17 -36 32
-41 31 -6 0 -56 -31 -111 -69z"/>
<path d="M15150 6888 c-14 -13 -99 -78 -190 -145 -91 -67 -169 -126 -175 -131
-5 -4 -54 -42 -108 -85 -249 -198 -341 -304 -402 -462 -22 -57 -29 -103 -28
-195 1 -120 29 -201 134 -379 12 -22 55 -83 164 -236 17 -23 52 -72 79 -108
57 -77 49 -80 115 50 58 115 58 146 -7 276 -27 56 -51 107 -52 112 -1 6 -5 15
-10 20 -10 13 -38 101 -46 145 -22 124 0 274 57 380 58 110 231 301 365 405
125 97 155 147 158 265 1 25 -3 51 -9 59 -5 8 -9 16 -7 18 5 8 1 33 -6 33 -4
0 -18 -10 -32 -22z"/>
<path d="M8731 6802 c-10 -20 -20 -41 -21 -47 -3 -14 -15 -42 -36 -90 -10 -22
-19 -44 -20 -50 -1 -11 -7 -25 -63 -157 -124 -293 -278 -695 -333 -868 -16
-52 -32 -102 -35 -110 -14 -37 -51 -235 -58 -310 -6 -74 -7 -212 -1 -282 6
-69 17 -152 22 -159 2 -3 5 -19 8 -35 3 -16 13 -56 22 -89 9 -33 17 -64 18
-70 2 -5 8 -23 14 -38 7 -16 12 -31 12 -33 0 -22 152 -324 162 -324 4 0 8 -4
8 -9 0 -5 23 -44 50 -85 28 -42 50 -80 50 -86 0 -5 5 -10 10 -10 6 0 10 -5 10
-11 0 -6 15 -34 33 -62 48 -74 98 -166 198 -367 87 -173 116 -215 174 -256 35
-25 115 -54 165 -60 19 -3 43 -6 53 -8 20 -5 21 -7 -45 91 -26 40 -48 77 -48
83 0 5 -3 10 -7 10 -9 0 -18 16 -103 175 -35 66 -67 122 -72 123 -4 2 -8 12
-8 22 0 10 -4 21 -9 24 -5 3 -23 33 -41 67 -17 34 -41 77 -52 98 -32 54 -180
350 -202 401 -11 25 -33 74 -49 110 -16 36 -30 72 -32 80 -3 8 -15 54 -29 101
-34 120 -37 145 -41 304 -4 134 0 165 33 295 10 39 50 164 62 195 83 211 114
286 175 425 40 91 82 187 94 212 11 26 21 53 21 60 0 8 5 19 11 25 6 6 11 17
13 24 1 8 12 37 25 64 13 28 24 62 25 76 2 14 6 31 10 38 12 19 9 221 -3 221
-3 0 -7 13 -8 29 -2 26 -73 236 -91 270 -5 8 -18 18 -30 22 -19 7 -25 3 -41
-29z"/>
<path d="M13190 6689 c0 -5 5 -7 10 -4 6 3 10 8 10 11 0 2 -4 4 -10 4 -5 0
-10 -5 -10 -11z"/>
<path d="M13110 6653 c-321 -173 -513 -431 -567 -760 -3 -21 -7 -81 -7 -133 0
-101 6 -138 32 -203 7 -16 12 -31 12 -34 0 -3 20 -35 44 -72 73 -109 189 -218
404 -379 82 -62 102 -71 60 -28 -20 19 -46 49 -121 135 -49 59 -165 232 -205
311 -50 96 -92 208 -99 264 -9 73 -9 174 0 211 5 22 11 51 13 64 7 37 48 132
76 176 14 22 25 44 26 49 0 5 4 12 9 15 5 3 28 31 51 61 70 90 251 269 326
323 10 8 17 19 15 24 -2 7 -31 -3 -69 -24z"/>
<path d="M15172 6513 c-15 -6 -96 -60 -132 -88 -35 -28 -161 -156 -187 -191
-45 -58 -98 -173 -120 -259 -11 -45 -9 -193 4 -240 8 -27 15 -54 17 -60 13
-55 99 -200 123 -209 10 -4 32 52 50 129 5 25 9 36 16 55 7 20 127 442 131
466 3 10 9 30 14 44 5 14 10 27 10 30 0 8 31 114 64 223 16 55 28 100 26 102
-2 1 -9 0 -16 -2z"/>
<path d="M8880 6013 c-57 -115 -109 -211 -115 -215 -5 -4 -7 -8 -2 -8 4 0 -4
-21 -17 -47 -42 -82 -108 -230 -110 -245 -1 -3 -4 -10 -8 -14 -5 -4 -8 -16 -8
-26 0 -10 -5 -18 -11 -18 -5 0 -8 -4 -4 -9 3 -5 -1 -27 -9 -48 -14 -36 -44
-145 -52 -188 -2 -11 -6 -33 -9 -50 -9 -49 -18 -195 -17 -265 2 -123 12 -193
43 -316 29 -114 35 -135 53 -176 9 -21 16 -40 16 -43 -1 -17 173 -332 240
-435 5 -8 19 -33 31 -55 12 -22 24 -42 28 -45 3 -3 12 -15 19 -27 6 -13 18
-33 25 -45 6 -13 17 -30 23 -38 6 -8 22 -35 35 -60 13 -25 26 -47 29 -50 3 -3
16 -25 29 -50 12 -25 50 -97 84 -160 33 -63 66 -127 74 -141 32 -63 133 -134
223 -159 25 -7 52 -15 60 -17 8 -3 29 -6 45 -8 17 -1 54 -5 83 -9 28 -4 52 -5
52 -2 0 10 -73 184 -128 306 -9 19 -33 61 -54 92 -21 31 -38 62 -38 67 0 6 -4
11 -10 11 -5 0 -10 7 -10 15 0 8 -4 15 -10 15 -5 0 -10 4 -10 9 0 11 -82 135
-92 139 -5 2 -8 8 -8 13 0 5 -22 40 -48 77 -27 37 -82 114 -122 172 -41 58
-77 107 -81 110 -4 3 -36 50 -72 105 -72 111 -154 269 -187 360 -12 33 -24 67
-27 75 -22 58 -52 206 -60 295 -11 129 -5 288 13 365 3 14 6 33 6 42 -1 10 4
20 9 23 5 4 7 10 4 15 -8 13 58 207 106 312 24 51 69 137 101 190 78 130 89
157 84 218 -3 37 -14 63 -38 97 -18 26 -38 48 -44 50 -5 2 -57 -90 -114 -204z"/>
<path d="M9110 5879 c-104 -166 -210 -398 -236 -520 -28 -132 -36 -189 -38
-278 -3 -159 16 -286 67 -436 13 -38 26 -77 28 -85 6 -22 149 -303 157 -310 4
-3 16 -22 27 -42 11 -21 22 -38 26 -38 4 0 12 -13 19 -30 7 -16 16 -30 21 -30
5 0 9 -5 9 -11 0 -6 25 -47 55 -91 30 -44 55 -82 55 -84 0 -3 5 -10 10 -17 28
-33 120 -169 120 -177 0 -5 8 -14 18 -19 9 -6 13 -11 7 -11 -6 0 -6 -3 1 -8
14 -10 214 -310 214 -321 0 -5 3 -11 8 -13 4 -1 17 -21 28 -43 21 -37 28 -69
39 -156 9 -72 45 -129 100 -157 28 -14 93 -23 166 -24 64 -1 88 13 90 51 0 9
3 25 5 36 4 21 16 142 16 160 -9 179 -67 327 -215 543 -82 119 -199 284 -207
292 -3 3 -25 34 -49 70 -25 36 -48 67 -53 68 -4 2 -8 9 -8 15 0 7 -11 24 -25
39 -14 15 -25 29 -25 32 0 3 -28 45 -63 93 -229 318 -289 433 -330 629 -18 87
-20 279 -2 362 7 34 10 62 8 62 -3 0 0 7 7 15 7 8 10 15 6 15 -3 0 6 30 20 68
77 207 77 267 -5 361 l-38 44 -33 -54z"/>
<path d="M12399 5660 c-16 -60 -13 -166 5 -191 23 -33 257 -269 411 -414 70
-66 144 -136 164 -155 20 -19 77 -71 126 -115 50 -44 102 -91 116 -105 15 -14
57 -52 95 -85 38 -33 85 -76 105 -95 20 -19 48 -44 62 -55 23 -18 105 -91 211
-188 59 -54 83 -75 163 -145 l71 -62 38 40 c59 62 59 64 9 104 -24 20 -50 42
-57 49 -7 7 -47 39 -88 72 -101 81 -121 97 -139 118 -8 9 -19 17 -24 17 -4 0
-18 10 -31 23 -13 12 -43 38 -67 57 -80 64 -184 150 -199 163 -8 8 -82 67
-165 133 -82 65 -155 123 -162 129 -6 5 -51 42 -99 80 -49 39 -102 84 -120
100 -17 17 -56 53 -86 82 -119 112 -245 273 -312 398 -14 27 -27 48 -27 45z"/>
<path d="M9378 5644 c-4 -3 -12 -6 -20 -8 -35 -5 -70 -60 -84 -131 -5 -29 -13
-66 -20 -95 -4 -14 -8 -86 -9 -160 -3 -142 9 -242 46 -359 22 -73 96 -248 114
-271 6 -8 27 -42 45 -75 49 -89 197 -299 255 -361 5 -6 21 -26 35 -44 14 -18
30 -38 36 -44 80 -83 272 -353 325 -458 101 -201 135 -402 99 -594 -7 -36 -10
-67 -8 -69 11 -11 146 -33 193 -32 41 2 59 7 79 26 14 13 23 28 20 32 -3 5 -1
9 4 9 8 0 33 66 37 100 1 8 7 33 13 55 6 22 13 56 17 75 9 50 11 231 3 236 -3
2 -5 12 -3 22 1 9 -2 28 -7 41 -5 13 -11 36 -13 50 -6 39 -10 55 -16 66 -4 6
-12 28 -19 50 -30 95 -179 352 -247 425 -13 14 -23 28 -23 32 0 3 -6 13 -13
20 -7 7 -48 60 -92 118 -44 58 -82 107 -85 110 -3 3 -22 28 -41 55 -18 28 -37
52 -40 55 -4 3 -39 55 -78 115 -97 148 -246 450 -422 855 -66 153 -72 164 -81
154z"/>
<path d="M21 5492 c-9 -185 -2 -451 15 -592 4 -36 8 -77 8 -92 1 -16 4 -28 8
-28 3 0 5 -8 4 -17 -2 -10 1 -33 6 -53 5 -19 9 -42 10 -50 3 -70 116 -451 167
-565 61 -133 144 -295 194 -378 62 -103 99 -153 83 -112 -4 11 -19 63 -32 115
-14 52 -27 102 -31 110 -3 8 -7 24 -9 35 -1 11 -24 97 -49 190 -25 94 -48 178
-50 188 -2 10 -7 27 -10 37 -3 10 -8 29 -11 42 -9 39 -12 53 -14 53 -1 0 -4
11 -6 25 -3 14 -9 43 -15 65 -6 22 -13 48 -15 57 -2 10 -7 28 -10 41 -19 72
-26 104 -27 125 -1 12 -6 22 -11 22 -5 0 -7 3 -4 6 3 3 2 21 -4 41 -5 19 -12
45 -14 57 -3 11 -6 26 -8 31 -1 6 -6 31 -11 58 -4 26 -11 50 -16 53 -5 3 -7 9
-4 14 3 4 -2 34 -10 67 -8 32 -16 69 -19 83 -5 24 -41 190 -52 240 -3 14 -6
33 -7 43 -1 9 -5 17 -9 17 -4 0 -5 9 -3 20 2 11 0 22 -5 25 -5 3 -7 12 -3 20
3 8 0 15 -7 15 -6 0 -9 4 -6 9 7 11 -4 71 -13 71 -3 0 -8 -39 -10 -88z"/>
<path d="M12250 5414 c0 -62 37 -109 204 -258 38 -33 77 -68 85 -76 9 -9 56
-52 106 -95 49 -44 95 -84 101 -90 16 -15 182 -166 214 -195 15 -14 55 -50 89
-80 140 -124 341 -329 382 -390 77 -116 123 -227 135 -330 3 -25 7 -56 9 -70
2 -14 3 -31 4 -38 1 -14 131 70 174 113 56 56 36 116 -89 272 -80 99 -171 194
-273 283 -35 30 -69 60 -76 67 -7 7 -50 44 -95 83 -45 39 -88 76 -95 83 -6 7
-33 30 -59 52 -54 45 -60 50 -142 121 -85 74 -204 177 -238 205 -64 53 -142
122 -153 137 -7 9 -13 12 -13 6 0 -5 -4 -4 -8 2 -6 9 -74 70 -181 159 -13 11
-34 30 -47 43 -30 28 -34 28 -34 -4z"/>
<path d="M12114 5330 c-12 -5 -25 -13 -28 -18 -8 -13 60 -122 97 -156 18 -16
61 -56 97 -90 36 -33 108 -99 159 -146 52 -47 106 -96 121 -110 15 -14 64 -59
110 -100 168 -151 400 -392 400 -414 0 -4 9 -16 20 -28 17 -19 86 -149 106
-203 28 -74 41 -162 38 -262 -1 -59 -5 -118 -8 -130 -12 -47 -27 -105 -30
-120 -1 -7 -5 -16 -9 -19 -4 -4 -7 -11 -7 -15 0 -13 66 15 158 66 39 21 102
87 125 130 26 50 31 152 12 226 -23 87 -100 239 -165 323 -23 31 -150 156
-214 211 -32 28 -77 68 -101 90 -23 22 -78 72 -121 110 -43 39 -95 87 -116
107 -21 20 -38 35 -38 33 0 -2 -20 15 -44 38 -42 40 -130 119 -186 167 -14 12
-41 36 -60 53 -19 18 -80 72 -135 121 -55 49 -102 92 -105 95 -30 34 -57 48
-76 41z"/>
<path d="M9643 5293 c1 -10 5 -22 8 -28 6 -9 22 -70 19 -70 0 0 6 -17 15 -37
8 -21 13 -38 11 -38 -9 0 62 -136 78 -149 9 -7 16 -17 16 -22 0 -14 191 -309
284 -439 52 -73 158 -210 191 -246 6 -6 21 -26 35 -44 14 -19 35 -46 48 -61
12 -15 22 -32 22 -38 0 -6 4 -11 8 -11 5 0 15 -12 23 -27 8 -16 16 -30 19 -33
11 -9 70 -110 70 -118 0 -4 6 -14 13 -20 6 -7 12 -16 13 -20 0 -4 12 -32 26
-62 25 -53 63 -163 73 -208 3 -12 7 -32 10 -44 16 -67 28 -328 15 -328 -3 0
-5 -10 -6 -22 -1 -52 -20 -136 -50 -226 -8 -23 -14 -44 -14 -47 0 -9 77 -27
124 -30 60 -2 97 11 139 51 32 30 90 141 81 156 -3 4 0 8 6 8 6 0 8 4 5 10 -3
5 0 20 6 32 7 13 13 32 15 43 1 11 9 61 17 110 14 85 16 283 3 360 -12 68 -37
169 -45 179 -5 6 -9 13 -9 16 3 14 -29 93 -62 155 -69 130 -74 139 -107 179
-7 8 -13 19 -13 25 0 5 -3 11 -8 13 -4 2 -23 23 -42 48 -19 25 -48 61 -65 81
-26 31 -54 65 -117 143 -80 98 -118 149 -147 196 -114 183 -124 195 -251 311
-23 21 -275 179 -285 179 -5 0 -41 20 -81 45 -78 49 -95 54 -91 28z"/>
<path d="M11950 5203 c0 -5 8 -15 18 -24 9 -8 53 -55 97 -104 44 -48 96 -105
115 -126 19 -20 76 -81 125 -135 85 -91 196 -210 275 -294 131 -137 278 -363
295 -451 2 -10 6 -23 9 -27 6 -9 14 -44 26 -112 10 -57 4 -232 -10 -285 -6
-22 -13 -50 -16 -63 -2 -12 -16 -48 -30 -80 -13 -31 -30 -69 -37 -84 -6 -16
-16 -28 -20 -28 -5 0 -6 -4 -3 -9 3 -5 -3 -20 -14 -34 -27 -34 -25 -41 8 -32
15 4 36 8 47 10 11 1 21 4 23 5 1 1 5 3 10 4 4 1 17 7 30 14 12 7 22 10 22 6
0 -17 129 101 130 119 0 5 6 15 14 23 14 13 52 116 61 164 42 220 2 420 -121
601 -46 68 -42 63 -167 189 -86 88 -221 216 -357 340 -136 124 -188 172 -209
189 -39 34 -162 145 -185 167 -12 11 -34 29 -48 38 -30 20 -88 32 -88 19z"/>
<path d="M11757 5104 c-6 -7 -7 -5 107 -141 94 -111 113 -131 314 -338 76 -77
152 -158 170 -180 46 -54 142 -199 142 -214 0 -6 5 -11 10 -11 6 0 10 -9 10
-19 0 -11 4 -22 9 -25 16 -10 63 -157 77 -241 10 -59 11 -215 3 -255 -5 -19
-11 -51 -14 -70 -3 -19 -13 -60 -21 -90 -8 -30 -16 -62 -19 -71 -2 -9 -24 -67
-48 -129 -38 -93 -44 -116 -34 -131 11 -18 43 -18 57 0 3 3 31 25 62 48 62 47
94 84 134 159 36 66 95 216 82 208 -6 -4 -6 1 1 13 38 72 33 316 -8 425 -5 13
-9 25 -9 28 -3 25 -76 176 -98 201 -8 8 -14 21 -14 27 0 7 -4 12 -8 12 -4 0
-15 12 -24 28 -36 61 -301 328 -554 559 -49 44 -111 102 -139 128 -27 25 -59
53 -70 60 -21 15 -108 29 -118 19z"/>
<path d="M11571 5009 c31 -45 212 -276 245 -314 14 -16 44 -52 67 -79 23 -28
58 -68 77 -91 19 -23 55 -65 80 -94 120 -142 204 -280 236 -386 40 -136 49
-193 47 -326 -1 -80 -8 -134 -28 -215 -15 -59 -31 -114 -35 -123 -9 -16 -21
-48 -26 -66 -1 -5 -18 -50 -38 -98 -28 -69 -34 -92 -26 -108 6 -10 13 -19 16
-19 20 0 122 81 150 119 81 110 164 318 180 452 23 192 -5 339 -99 524 -78
154 -147 235 -498 586 -219 219 -239 237 -285 248 -27 6 -58 14 -68 18 -17 5
-17 2 5 -28z"/>
<path d="M10270 4995 c0 -9 22 -49 30 -55 3 -3 22 -27 41 -55 18 -27 39 -56
46 -65 34 -43 109 -145 118 -159 6 -9 13 -18 16 -21 12 -10 278 -369 341 -460
200 -289 261 -571 193 -890 -3 -14 -7 -34 -9 -45 -2 -11 -25 -81 -50 -154 -25
-74 -44 -136 -42 -139 6 -5 61 -12 131 -15 87 -5 132 26 165 113 7 19 17 39
22 44 4 6 8 16 8 22 0 7 4 23 9 36 5 13 10 28 11 33 1 6 6 18 12 28 5 10 11
26 13 35 2 9 10 45 18 80 9 34 16 65 16 67 1 3 1 6 2 8 11 39 14 269 4 332 -5
28 -9 60 -9 73 -1 12 -5 22 -9 22 -4 0 -7 6 -6 13 3 16 -10 67 -22 89 -5 10
-9 23 -9 30 0 16 -76 173 -113 233 -44 72 -104 149 -247 320 -69 83 -155 188
-190 235 -136 180 -222 231 -417 245 -40 3 -73 3 -73 0z"/>
<path d="M2708 4985 c-1 -2 -25 -6 -53 -9 -27 -4 -59 -9 -70 -11 -11 -2 -24
-4 -29 -4 -4 -1 -5 -18 -1 -38 4 -21 9 -51 11 -68 6 -38 25 -159 28 -177 2 -7
6 -31 10 -53 25 -129 97 -376 119 -402 5 -7 7 -13 4 -13 -9 0 93 -183 116
-207 11 -13 17 -23 14 -23 -9 0 41 -58 138 -160 52 -55 147 -139 210 -187 49
-38 218 -175 249 -203 76 -69 102 -93 189 -173 49 -45 110 -102 136 -127 73
-71 135 -120 234 -188 l91 -62 28 31 c15 16 28 33 28 36 0 3 8 11 17 18 15 11
12 17 -28 61 -25 27 -67 76 -95 109 -27 33 -53 65 -59 71 -5 6 -35 40 -65 75
-30 35 -147 156 -260 269 -213 214 -300 307 -300 321 0 5 -3 9 -8 9 -23 0
-226 305 -289 436 -67 137 -167 405 -161 432 1 4 -2 14 -5 22 -7 17 -26 91
-27 102 -1 19 -38 73 -61 90 -22 16 -101 33 -111 23z"/>
<path d="M3002 4976 c-24 -6 -43 -14 -43 -19 -4 -77 143 -527 189 -579 8 -10
12 -18 9 -18 -10 0 142 -272 162 -290 3 -3 22 -29 41 -57 19 -29 38 -53 43
-53 4 0 7 -5 7 -11 0 -22 86 -118 294 -329 127 -129 294 -325 416 -490 25 -33
125 -155 145 -176 13 -13 70 -44 82 -44 4 0 19 9 32 19 l24 18 -33 69 c-91
195 -136 275 -188 340 -68 85 -123 152 -137 168 -51 57 -210 286 -294 421 -44
72 -84 135 -88 140 -5 6 -14 21 -20 35 -7 14 -33 61 -58 105 -24 44 -62 114
-82 155 -21 41 -41 77 -45 78 -5 2 -8 9 -8 15 0 7 -13 39 -29 72 -16 33 -44
92 -61 130 -92 203 -129 258 -193 288 -43 21 -112 26 -165 13z"/>
<path d="M3395 4975 c-58 -12 -58 -10 -14 -131 16 -44 29 -86 29 -92 0 -7 5
-12 12 -12 6 0 9 -3 6 -6 -7 -6 21 -72 83 -199 21 -45 39 -86 39 -92 0 -6 3
-13 8 -15 4 -1 19 -25 33 -53 53 -101 64 -120 69 -125 3 -3 14 -22 25 -42 11
-21 23 -38 28 -38 4 0 6 -4 3 -9 -4 -5 -3 -11 1 -13 10 -4 73 -106 73 -118 0
-5 3 -10 8 -12 4 -1 27 -34 52 -73 25 -38 53 -79 62 -89 10 -11 18 -25 18 -32
0 -7 4 -14 8 -16 13 -5 270 -395 327 -495 20 -35 80 -136 97 -162 10 -14 21
-33 25 -41 5 -8 30 -51 57 -95 42 -70 54 -82 88 -93 22 -7 42 -11 44 -10 5 6
-65 259 -88 318 -19 48 -48 109 -161 340 -12 25 -25 47 -29 48 -5 2 -8 8 -8
14 0 6 -73 157 -162 337 -89 179 -161 329 -160 334 1 4 -3 7 -8 7 -6 0 -10 4
-10 9 0 26 -262 541 -294 578 -65 74 -156 102 -261 78z"/>
<path d="M3857 4984 c-1 -1 -22 -5 -47 -9 -25 -4 -48 -10 -52 -14 -4 -3 9 -40
29 -81 20 -41 37 -77 38 -80 1 -3 30 -63 65 -135 35 -71 64 -132 65 -135 1 -3
22 -49 48 -102 26 -54 47 -102 47 -108 0 -5 5 -10 10 -10 6 0 10 -4 10 -9 0
-6 28 -68 61 -138 125 -262 168 -352 236 -493 39 -80 92 -190 118 -245 241
-503 264 -545 279 -497 28 91 27 520 -1 647 -2 11 -6 31 -8 45 -2 14 -7 36
-10 50 -3 14 -8 39 -10 56 -3 17 -9 42 -14 55 -5 13 -9 27 -10 32 0 4 -2 9 -2
12 -53 211 -189 521 -341 774 -37 63 -68 118 -68 123 0 4 -3 8 -8 8 -4 0 -15
15 -25 33 -47 85 -159 178 -246 204 -46 13 -156 25 -164 17z"/>
<path d="M4374 4981 c-2 -2 -14 -5 -27 -7 -12 -1 -23 -3 -24 -4 -2 -2 -6 -3
-10 -5 -48 -13 -63 -18 -63 -21 0 -2 18 -33 40 -69 22 -36 40 -67 40 -69 0 -2
18 -34 40 -70 22 -36 40 -68 40 -72 0 -3 8 -18 18 -32 11 -15 34 -54 52 -87
18 -33 44 -80 58 -105 50 -91 159 -307 186 -370 15 -36 35 -80 43 -99 8 -18
16 -39 17 -45 2 -6 12 -42 24 -80 24 -74 25 -77 47 -186 22 -110 24 -121 30
-170 3 -25 8 -56 10 -70 8 -42 17 -104 21 -135 6 -54 16 -170 17 -183 0 -17
10 -5 13 16 2 9 6 46 9 82 3 36 7 81 10 100 4 34 10 94 20 210 25 298 25 821
-1 912 -3 9 -7 27 -10 40 -6 27 -9 38 -16 58 -3 8 -13 38 -23 65 -71 211 -194
350 -345 390 -46 12 -205 17 -216 6z"/>
<path d="M6433 4948 c-46 -48 -70 -90 -78 -138 -3 -19 -9 -38 -12 -44 -4 -5
-8 -19 -9 -31 -7 -61 -90 -352 -106 -372 -6 -7 -8 -13 -5 -13 3 0 -14 -42 -37
-92 -24 -51 -55 -118 -69 -148 -45 -99 -94 -203 -164 -350 -38 -80 -76 -160
-84 -177 -7 -18 -17 -33 -21 -33 -5 0 -8 -6 -8 -13 0 -7 -23 -60 -51 -117
-135 -275 -209 -434 -209 -446 0 -8 -5 -14 -12 -14 -6 0 -8 -3 -5 -7 4 -3 2
-12 -4 -20 -20 -24 8 -14 42 15 72 59 139 147 250 325 44 70 84 137 89 150 6
12 20 38 31 57 43 70 259 509 259 525 0 5 38 90 71 161 10 22 19 47 19 55 0 8
4 19 8 25 5 5 14 23 20 39 6 17 17 44 23 60 7 17 13 35 15 40 2 6 24 70 49
143 25 74 47 143 49 155 3 12 5 22 6 22 2 0 9 29 25 105 3 14 8 49 11 78 6 46
4 56 -17 78 -12 13 -25 24 -29 24 -3 0 -24 -19 -47 -42z"/>
<path d="M11300 4980 c0 -4 3 -10 8 -12 4 -1 36 -42 72 -90 36 -49 68 -88 73
-88 4 0 7 -4 7 -10 0 -5 35 -54 78 -107 212 -266 388 -523 443 -650 50 -114
62 -180 63 -333 1 -122 -4 -174 -24 -255 -6 -22 -12 -47 -14 -55 -10 -40 -67
-193 -95 -254 -32 -69 -32 -70 -12 -89 19 -20 20 -20 58 3 21 13 50 36 66 53
51 56 146 266 181 404 26 101 28 115 31 237 3 134 -10 210 -58 326 -26 64
-118 224 -137 240 -4 3 -45 53 -93 111 -47 59 -98 120 -114 137 -15 16 -68 73
-118 127 -49 54 -110 118 -134 144 -23 25 -55 60 -70 76 -25 29 -91 81 -91 72
0 -4 -37 2 -97 17 -13 2 -23 1 -23 -4z"/>
<path d="M5478 4975 c-1 -2 -27 -6 -57 -10 -30 -4 -62 -10 -73 -14 -19 -7 -19
-7 0 -31 20 -26 84 -137 82 -142 -1 -2 5 -19 14 -38 8 -19 17 -51 20 -70 4
-19 10 -48 13 -65 15 -64 5 -346 -13 -376 -2 -4 -6 -24 -10 -44 -7 -47 -11
-62 -23 -103 -5 -18 -10 -33 -10 -35 1 -5 -13 -63 -18 -77 -3 -8 -7 -24 -8
-35 -2 -11 -12 -58 -24 -105 -20 -85 -33 -145 -32 -155 0 -2 -4 -19 -9 -36 -5
-18 -12 -51 -16 -73 -7 -47 -12 -71 -14 -71 -2 0 -8 -26 -15 -70 -3 -22 -8
-47 -11 -55 -3 -8 -8 -33 -11 -55 -3 -22 -6 -44 -7 -50 0 -5 8 -11 20 -13 18
-3 27 12 63 100 23 57 43 108 44 113 2 6 5 15 8 20 7 10 49 137 53 158 2 7 6
19 9 27 8 21 101 304 102 310 0 3 20 66 43 140 64 201 70 222 76 253 2 15 7
35 10 45 15 50 53 251 48 256 -2 3 -1 10 4 17 9 16 11 139 2 139 -5 0 -8 14
-8 30 0 17 -5 30 -12 30 -6 0 -9 3 -5 6 7 7 -18 33 -57 57 -19 13 -52 20 -101
22 -40 2 -75 2 -77 0z"/>
<path d="M5816 4973 c-16 -4 -17 -11 -10 -71 19 -166 9 -334 -30 -537 -13 -66
-66 -247 -108 -365 -16 -47 -31 -89 -32 -95 -2 -5 -8 -23 -15 -40 -16 -39
-142 -413 -146 -434 -2 -9 -12 -51 -23 -95 -24 -90 -18 -89 23 4 28 64 71 157
175 375 83 176 120 256 146 320 14 33 29 69 34 80 35 71 117 346 134 445 3 19
8 46 11 60 8 42 17 155 19 250 2 73 -1 91 -14 95 -22 7 -142 13 -164 8z"/>
<path d="M6108 4969 c-5 -4 -12 -37 -14 -75 -8 -135 -19 -220 -41 -314 -8 -36
-16 -72 -18 -80 -9 -41 -75 -269 -86 -295 -7 -17 -13 -35 -14 -41 -4 -16 -132
-339 -156 -391 -10 -23 -19 -44 -19 -47 0 -2 -13 -34 -30 -69 -16 -36 -30 -68
-30 -72 0 -3 -11 -30 -23 -58 -13 -29 -32 -74 -42 -102 -10 -27 -22 -55 -27
-61 -4 -6 -9 -19 -11 -30 -3 -10 -10 -35 -18 -54 -7 -19 -12 -38 -11 -42 1 -5
-2 -8 -6 -8 -5 0 -9 -6 -9 -12 0 -7 -4 -26 -8 -43 -4 -16 17 17 47 75 30 58
77 146 105 195 161 289 393 754 393 789 0 6 4 16 9 22 4 5 25 56 45 114 21 58
43 121 51 140 7 19 13 37 13 40 0 3 5 25 12 50 7 25 14 52 15 60 2 8 4 15 5
15 2 0 6 18 13 60 3 17 10 52 16 79 7 26 14 72 17 102 6 52 5 54 -17 55 -100
4 -152 3 -161 -2z"/>
<path d="M6692 4938 c-25 -25 -50 -63 -63 -97 -11 -31 -26 -69 -34 -86 -16
-37 -67 -166 -140 -355 -30 -80 -60 -154 -65 -165 -5 -11 -32 -78 -60 -150
-28 -71 -56 -135 -62 -142 -6 -7 -8 -13 -5 -13 11 0 -97 -241 -194 -434 -58
-116 -97 -190 -250 -473 l-40 -73 21 -39 20 -40 47 15 c27 9 57 19 68 24 11 5
38 14 60 20 43 12 113 47 130 64 10 10 40 62 116 201 41 77 199 392 240 482
54 116 151 337 154 348 1 6 10 28 20 50 10 22 20 45 21 50 2 6 14 39 28 75 13
36 27 79 29 95 3 17 8 41 11 55 9 39 18 104 30 215 4 33 9 78 11 100 24 217
24 218 -19 272 l-33 42 -41 -41z"/>
<path d="M4773 4963 c-7 -3 15 -32 53 -71 58 -59 136 -164 172 -232 40 -74 84
-221 99 -325 10 -72 9 -339 -1 -450 -8 -95 -12 -150 -21 -282 -4 -54 -9 -118
-10 -143 -4 -53 -16 -241 -20 -320 -2 -30 -4 -55 -5 -55 -1 0 -2 -31 -3 -69
-2 -64 0 -69 20 -72 14 -2 24 2 27 14 5 18 46 192 51 220 2 9 4 17 5 17 2 0
10 43 12 68 1 9 6 17 11 17 4 0 6 4 3 9 -3 4 -1 23 5 42 6 19 12 45 15 59 6
33 42 184 55 234 6 22 13 48 15 60 7 39 55 261 61 286 10 40 12 53 17 87 2 18
7 40 10 50 2 10 7 34 10 53 3 19 7 44 9 55 69 355 52 517 -65 635 -39 39 -120
83 -173 95 -16 4 -39 9 -50 12 -25 7 -286 12 -302 6z"/>
<path d="M10734 4939 c-16 -17 -15 -21 9 -51 14 -18 33 -42 43 -53 11 -11 48
-54 84 -95 36 -41 67 -77 70 -80 5 -5 86 -103 105 -128 6 -7 15 -18 20 -25 61
-75 135 -180 212 -302 51 -81 142 -295 159 -376 9 -42 22 -114 23 -129 5 -45
4 -222 -2 -265 -7 -52 -8 -59 -27 -140 -13 -58 -70 -204 -111 -287 l-28 -56
36 -17 c26 -13 38 -14 41 -6 2 6 8 11 14 11 11 0 91 62 131 102 35 35 114 213
132 298 2 8 8 38 15 65 52 229 16 476 -104 709 -46 88 -176 274 -256 364 -16
19 -30 36 -30 38 0 4 -37 49 -70 84 -8 9 -30 34 -49 55 -184 216 -238 260
-351 289 -45 12 -51 11 -66 -5z"/>
<path d="M11050 4940 c0 -4 13 -21 28 -38 16 -16 39 -44 53 -62 13 -17 34 -42
45 -55 94 -104 297 -366 360 -465 54 -86 143 -261 165 -325 7 -22 17 -45 21
-50 4 -6 9 -24 12 -40 14 -76 17 -89 23 -98 9 -15 16 -96 17 -212 1 -131 -9
-204 -40 -315 -9 -30 -17 -59 -19 -65 -4 -20 -17 -52 -55 -137 -21 -49 -35
-90 -32 -92 12 -7 122 42 147 66 14 13 25 30 25 39 0 8 11 47 24 85 13 38 23
71 24 74 0 3 3 12 6 20 9 25 37 134 41 155 2 11 4 20 5 20 1 0 3 9 5 20 2 11
10 50 18 87 23 106 19 274 -8 388 -3 14 -8 35 -11 48 -15 71 -112 277 -151
320 -7 7 -13 17 -13 21 0 4 -8 17 -18 29 -10 11 -27 33 -38 47 -20 28 -25 34
-111 131 -68 78 -377 385 -400 398 -22 12 -123 18 -123 6z"/>
<path d="M49 4390 c0 -8 -2 -28 -4 -45 -13 -125 3 -301 34 -380 56 -139 108
-223 185 -296 25 -24 40 -24 27 -1 -5 9 -10 20 -10 24 -2 12 -8 29 -29 93 -11
33 -43 134 -72 225 -28 91 -57 181 -65 200 -8 19 -25 71 -39 115 -14 44 -26
73 -27 65z"/>
<path d="M8058 4246 c-17 -12 -16 -17 11 -67 23 -43 59 -140 60 -164 0 -3 3
-15 6 -28 3 -12 7 -33 9 -47 11 -58 17 -81 27 -107 6 -16 10 -29 9 -31 -4 -6
25 -92 31 -92 4 0 10 -12 13 -26 8 -29 121 -144 142 -144 8 0 24 6 37 13 12 6
23 12 24 13 2 0 -19 45 -46 100 -27 54 -99 203 -160 329 -144 298 -130 276
-163 251z"/>
<path d="M96 3558 c32 -55 243 -350 263 -368 12 -10 91 -128 91 -135 0 -12 70
-93 95 -109 29 -19 68 -28 121 -28 42 0 124 19 124 28 0 6 -84 84 -127 119
-14 11 -42 36 -62 55 -47 43 -176 159 -256 230 -69 60 -211 189 -231 208 -7 6
-15 12 -19 12 -3 0 -3 -6 1 -12z"/>
<path d="M45 3373 c4 -158 43 -261 135 -353 38 -38 106 -71 153 -75 23 -2 42
-5 42 -5 0 -7 36 -6 40 0 3 5 12 7 20 3 8 -3 15 -2 15 2 0 6 -145 188 -172
216 -8 8 -27 32 -43 54 -17 22 -35 45 -41 50 -6 6 -41 47 -78 93 -38 45 -69
82 -70 82 -1 0 -2 -30 -1 -67z"/>
<path d="M428 3406 c-17 -23 -17 -24 25 -42 62 -28 122 -81 198 -174 111 -137
144 -173 192 -209 58 -44 125 -71 177 -71 29 0 38 6 53 32 18 31 18 32 -5 52
-13 12 -43 34 -67 50 -25 16 -50 33 -55 38 -6 4 -45 33 -86 63 -41 29 -80 59
-87 64 -7 6 -14 11 -17 11 -3 0 -64 42 -135 94 -117 85 -164 117 -173 116 -2
0 -11 -11 -20 -24z"/>
<path d="M996 3338 c-7 -18 -11 -36 -7 -40 3 -3 28 -14 56 -23 52 -17 159 -78
185 -104 8 -9 23 -20 31 -26 9 -5 54 -41 100 -79 46 -38 91 -71 99 -74 8 -3
22 -11 31 -18 34 -30 147 -62 217 -62 38 0 74 3 79 7 12 7 33 46 33 60 0 9
-83 52 -235 121 -33 15 -109 51 -168 79 -60 28 -110 51 -112 51 -4 0 -253 117
-277 131 -15 7 -20 3 -32 -23z"/>
<path d="M795 3329 c35 -42 150 -153 187 -181 20 -16 73 -64 117 -108 44 -43
99 -89 121 -100 55 -28 165 -29 193 -1 5 5 17 7 26 4 39 -12 -87 69 -272 176
-23 13 -61 37 -85 52 -24 16 -45 29 -48 29 -3 0 -30 16 -60 35 -30 19 -57 35
-60 35 -3 0 -18 8 -32 19 -15 10 -45 29 -67 41 l-40 22 20 -23z"/>
<path d="M1780 3271 c0 -5 -3 -16 -6 -25 -4 -10 -1 -16 7 -16 8 0 46 -16 84
-36 39 -20 196 -101 351 -180 l281 -143 21 47 c12 27 22 53 22 59 0 7 -201 94
-230 99 -3 0 -16 6 -30 11 -14 6 -77 32 -140 56 -63 25 -128 51 -145 58 -16 7
-32 13 -35 14 -22 5 -61 20 -95 35 -59 26 -85 33 -85 21z"/>
<path d="M1580 3214 c-14 -36 -13 -39 15 -42 38 -3 90 -33 195 -111 122 -92
168 -114 239 -115 60 0 113 8 132 19 11 7 -90 62 -181 99 -19 8 -73 32 -120
54 -286 134 -268 128 -280 96z"/>
</g>
</svg>
