<svg xmlns="http://www.w3.org/2000/svg" xmlns:xlink="http://www.w3.org/1999/xlink" viewBox="0 0 627.3 572.99"><defs><style>.cls-1{fill:url(#linear-gradient);}.cls-2{fill:url(#linear-gradient-2);}.cls-3{fill:url(#linear-gradient-3);}.cls-4{fill:url(#linear-gradient-4);}</style><linearGradient id="linear-gradient" x1="620.04" y1="540.78" x2="-63.59" y2="-7.12" gradientUnits="userSpaceOnUse"><stop offset="0" stop-color="#065d66"/><stop offset="1" stop-color="#128591"/></linearGradient><linearGradient id="linear-gradient-2" x1="-173.57" y1="267.3" x2="-60.89" y2="267.3" gradientTransform="translate(221.33 280.87) rotate(10.52)" xlink:href="#linear-gradient"/><linearGradient id="linear-gradient-3" x1="77.33" y1="106.27" x2="-15.63" y2="53.62" xlink:href="#linear-gradient"/><linearGradient id="linear-gradient-4" x1="626.85" y1="500.21" x2="555.21" y2="459.63" xlink:href="#linear-gradient"/></defs><title>Logo2gfdFichier 2dsq</title><g id="Calque_2" data-name="Calque 2"><g id="OBJECTS"><path class="cls-1" d="M604.68,315.43a160.17,160.17,0,0,0-72.45-64.32c-48.4-21.53-87.63-59.88-106.52-109.37A220.52,220.52,0,0,0,401.08,95C330-7.84,187-31.43,86.42,45.16-2.49,112.83-26.39,238.47,31.57,334A220,220,0,0,0,241.25,439.24c36.05-3.48,70.36,14.13,89.78,44.7q1.68,2.65,3.47,5.25a160.71,160.71,0,0,0,232.84,34C629.59,473.41,645.69,383.77,604.68,315.43Z"/><path class="cls-2" d="M26.66,466.75c17.67-1.59,9.39,25.43,26.49,40.36,14.9,17.12,57.83,24.82,56.21,42.49-.24,17.62-53.7,39.55-88.42,5.56C-13,520.38,9,467,26.66,466.75Z"/><circle class="cls-3" cx="49.48" cy="90.49" r="23.64"/><circle class="cls-4" cx="605.38" cy="488.05" r="18.22"/></g></g></svg>