<svg xmlns="http://www.w3.org/2000/svg" xmlns:xlink="http://www.w3.org/1999/xlink" viewBox="0 0 534.14 546.09"><defs><style>.cls-1{fill:url(#linear-gradient);}.cls-2{fill:url(#linear-gradient-2);}.cls-3{fill:url(#linear-gradient-3);}</style><linearGradient id="linear-gradient" x1="346.84" y1="436.64" x2="26" y2="-2.66" gradientUnits="userSpaceOnUse"><stop offset="0" stop-color="#128591"/><stop offset="1" stop-color="#1deaff"/></linearGradient><linearGradient id="linear-gradient-2" x1="517.53" y1="559.13" x2="473.11" y2="442.31" gradientTransform="translate(782.4 -144.94) rotate(67.66)" xlink:href="#linear-gradient"/><linearGradient id="linear-gradient-3" x1="-1776.63" y1="3128.71" x2="-1708.65" y2="3128.71" gradientTransform="translate(-3107.35 1025.3) rotate(-135)" xlink:href="#linear-gradient"/></defs><title>Logo2gfdFichier 3dsq</title><g id="Calque_2" data-name="Calque 2"><g id="OBJECTS"><path class="cls-1" d="M456.57,184.71c.17-.42.34-.84.5-1.27,17.31-45.26-1.48-97.42-43.69-121.23a98.87,98.87,0,0,0-98.78.68c-31.36,18.3-68.43,23.4-104.27,17.59-80.45-13-143.49,25.26-174.68,91.6a166.85,166.85,0,0,0-14.76,91.23c3.7,30.74,1,62.16-11.12,90.65q-1,2.4-2,4.88c-20.72,55,.65,121.46,53.83,146.47,46.24,21.73,82.72,16.1,110,1,40.22-22.24,88.48-26.63,130.19-7.35q2.64,1.21,5.34,2.34c66.73,27.69,145,.61,180.14-62.5,25-44.84,5-104.87-22.42-148.61C445.11,258.6,442.8,219.36,456.57,184.71Z"/><circle class="cls-2" cx="499.34" cy="511.29" r="34.8" transform="translate(-163.39 778.76) rotate(-67.66)"/><path class="cls-3" d="M317.48,16.83c18.25-18.25,43.81-22.29,57.09-9s9.24,38.83-9,57.08-52.49,31-65.76,17.7S299.23,35.08,317.48,16.83Z"/></g></g></svg>