<svg xmlns="http://www.w3.org/2000/svg" viewBox="0 0 382.45 238.47"><defs><style>.cls-1{fill:#3a3636;}</style></defs><title>Logo2Fichier 1</title><g id="Calque_2" data-name="Calque 2"><g id="Calque_1-2" data-name="Calque 1"><path class="cls-1" d="M200.87,216.93a69,69,0,0,1-3.65-7.62c-1.08-3.13-1.09-6.71-2.53-9.61-12.67-25.57-9.43-50.9,1.55-75.76,5.43-12.3,12.49-23.87,18.72-35.81a104.26,104.26,0,0,0,6-12.61c2.86-8,1.65-15.63-3.94-22-7.19-8.22-8.44-16.91-4-26.83a19,19,0,0,0,1.59-9.23c-.45-4.46,1.61-5.94,6.53-6.88-1.16,4-1.68,7.6-3.2,10.72-5.05,10.32-4.27,19.46,4,27.87,7.26,7.35,7.94,16,4.4,25.45q-13.87,36.9-27.55,73.89c-1.72,4.68-3.18,9.47-4.5,14.28a53.06,53.06,0,0,0,2.89,37c2.35,5.22,4,10.77,5.91,16.17Z"/><path class="cls-1" d="M213.36,14.7c-1.3,5.24-1.86,9.55-3.44,13.45-3.36,8.32-2.73,15.89,2.77,23,1.12,1.45,2.06,3,3.11,4.53,4.65,6.65,6,13.65,2.22,21.16-2.37,4.75-4.61,9.59-7.3,14.17C200,109.31,190,127.88,186,149c-2.76,14.35-2.39,28.42,3.15,42.2,2.28,5.68,3.93,11.6,5.5,16.3-6,4.69-6,11.76-10,17.14a10.64,10.64,0,0,1,.37-2.61c5.13-10.52,4.68-21,1-32-3.3-9.72-6.66-19.64-8.1-29.73-2.53-17.72,2.85-34,12.88-48.59,5-7.27,10.6-14.09,16-21.1,8.43-11,10.7-21.28,2.13-33.29-5.83-8.16-6.45-17.59-3.07-27.22a21.24,21.24,0,0,0,1.46-8.74C206.78,17.49,208.53,16,213.36,14.7Z"/><path class="cls-1" d="M205.18,20.83c-.67,3.7-.74,7.64-2.12,11.06-3.68,9.09-2.2,17.39,3.12,25.09,7.83,11.32,7,22.05-1.31,32.61-3.4,4.32-6.57,8.83-10.07,13.06-20.71,24.94-25.47,52.41-13.13,82.56,3.66,8.95,6.62,18.23,3.67,27.67-2.5,8-6.41,15.66-10.59,23-1,1.76-5.55,1.49-8.47,2.15l-.9-1.16c2.84-5.33,5.65-10.68,8.54-16,4.8-8.83,8-18.19,6.4-28.24-1-6.32-3.2-12.54-5.54-18.54-3.6-9.2-7.12-18.32-6.87-28.42.37-14.31,6.83-25.79,16.47-35.87,5.29-5.53,10.56-11.11,15.51-16.94,7.73-9.13,8.89-19,2.7-29.56a66.29,66.29,0,0,1-3.89-7.54c-2.39-5.62-2.12-11.12,0-17,1.46-4,1.24-8.66,2-13a42.19,42.19,0,0,1,1.94-5.85Z"/><path class="cls-1" d="M199.28,25.63c-.82,4.08-1,8.43-2.6,12.17-3.05,7.18-2.82,13.87.83,20.6l.24.44c9.17,16.35,9.95,22.09-4.71,39.25-4.21,4.92-9.16,9.2-13.47,14-14.7,16.55-17.6,35.24-9.69,55.75,2.22,5.74,4.65,11.4,6.61,17.22a36.52,36.52,0,0,1-1.27,27.29A225.84,225.84,0,0,1,164,234.62c-1.16,2-4.79,2.48-7.28,3.65l-1-1.52c2.09-3.92,4.26-7.8,6.24-11.77,5.81-11.63,10.69-23.31,11.2-36.85.26-7.09-4-11.53-5.47-17.41-2.77-11.26-6.23-22.35-8.63-33.68-.59-2.78,1.06-6.74,2.94-9.2a208.71,208.71,0,0,1,14.72-16.77c5.37-5.66,11.38-10.75,16.48-16.63,6.16-7.11,7.47-15.4,3.6-24.22-1.87-4.26-3.9-8.46-5.61-12.78A20.15,20.15,0,0,1,191.82,41c1.34-2.93,1.51-6.38,2.36-9.55.6-2.25,1.45-4.43,2.2-6.65Z"/><path class="cls-1" d="M34.24,107.86,55.76,99l1,1.31A21.12,21.12,0,0,1,53.57,103c-4,2.3-8.3,4.21-12.21,6.69-6.17,3.93-8.76,9.57-7.83,17,3.4,27.24,6.61,54.5,9.9,81.76.82,6.8,5.22,11,10.72,14.16,5.18,3,10.63,5.5,15.9,8.34,2.87,1.55,5.6,3.37,8.39,5.06l-.36,1.23a13.1,13.1,0,0,1-3.18-.65c-5.93-2.86-11.77-5.92-17.72-8.73-2.24-1-4.73-1.56-7.07-2.4-9.61-3.44-15-9.17-15.56-20.44-1.14-23.43-3.83-46.77-5.69-70.16-.44-5.61-.81-11.39.11-16.87.61-3.66,3.55-6.92,5.45-10.36Z"/><path class="cls-1" d="M86.45,238.15c-2.24-1-4.56-1.9-6.71-3.08-6.84-3.75-13.43-8-20.47-11.34-9-4.26-13.17-10.67-14.18-20.84-2.47-24.82-6-49.53-9.27-74.27-1.07-8.08,1.33-14.51,8.28-18.84,3.65-2.27,7.61-4,11.43-6l1.48,1c-1.07,1.85-1.88,4-3.28,5.5s-3.25,2.27-4.87,3.43c-5.71,4.12-8.86,9.56-7.74,16.71,2.08,13.3,4.44,26.55,6.65,39.82,1.47,8.86,3.62,17.68,4.16,26.59.74,12.31,7.07,20.38,16.95,26.5,4.24,2.62,8.55,5.14,12.69,7.93a63.62,63.62,0,0,1,5.89,5C87.13,236.89,86.79,237.52,86.45,238.15Z"/><path class="cls-1" d="M34.42,107.68c-6.29,2.07-8,7.34-8,12.95.07,10.3.61,20.61,1.38,30.89,1.42,19.25,3.27,38.47,4.67,57.72.46,6.32,3.37,10.95,8.72,13.58,6.23,3.05,12.9,5.2,19.33,7.85,3.9,1.61,7.72,3.44,11.58,5.17-.16.56-.32,1.12-.47,1.69a26.15,26.15,0,0,1-5.14-1c-6.66-2.83-13.21-5.92-19.87-8.75-2.89-1.23-6-1.92-8.92-3.13-8.11-3.37-12.26-9-12.67-18.31C24.2,186.19,22.14,166.14,21,146c-.5-8.61.09-17.29.12-25.93,0-5.52,2.52-10,7.16-12.37,9-4.62,18.4-8.54,27.64-12.75l.8,1.8c-4,1.63-8.14,3-12,5-3.61,1.77-7,4.06-10.44,6.12Z"/><path class="cls-1" d="M56.23,111.49c.6,3.72.58,6.85-2.55,9.9-5,4.91-7.12,11.1-5.41,18.26,1,4.37,1.64,8.85,2.81,13.17,2.86,10.53,7.46,20.73,5.09,32.19l2-.74c1.26,2.12,3.4,4.15,3.65,6.38,1.66,14.9,9.6,25.43,21.7,33.62,4.67,3.15,8.58,7.43,12.83,11.2l-1.17,2.14c-1.92-.56-4.15-.69-5.72-1.77-5.72-3.94-10.91-8.74-16.87-12.23C61.44,217.08,55.35,208.42,54,195c-1.73-16.82-5.93-33.38-8.9-50.07A126,126,0,0,1,43.4,130C42.9,121.15,47.31,114.92,56.23,111.49Z"/><path class="cls-1" d="M29,104.93c-8.76,4-10.79,11-10.47,18.67.94,22.44,2.18,44.87,3.36,67.29.28,5.49,1.07,11,1.07,16.44,0,8.33,3.93,13.83,11.17,17.35a20.72,20.72,0,0,1,2.09,1.3c.07.05.05.23.07.34-10.95-2-16.13-7.62-18.17-17.86-5.59-27.94-6.57-56.06-5.2-84.44C13.39,114.63,20.39,105.84,29,104.93Z"/><path class="cls-1" d="M252.39,235.74c-4.48.06-8.34.38-8.58-5.64-.09-2.11-1.73-4.27-3-6.2-4.27-6.53-8.9-12.85-13-19.48-9.27-14.93-8.89-27.35,1-42.48,2.79,2.29,3.21,4.72,1.79,8.18a25.27,25.27,0,0,0,2.52,24.77c5.08,7.61,10.65,14.89,15.78,22.47C252.59,222.75,254.62,228.64,252.39,235.74Z"/><path class="cls-1" d="M235.05,169c1.59,3.62,3.1,7.28,4.8,10.85,2.28,4.76,4.35,9.69,7.19,14.11,3.48,5.44,7.84,10.32,11.51,15.66,4.45,6.47,7.23,13.48,5.21,21.58-1.52,6.08-1.8,6.25-8.78,4.69,3.55-14.92-7.47-23.77-14.95-34-6.85-9.34-11-18.94-7.54-30.61a13,13,0,0,1,.78-1.75Z"/><path class="cls-1" d="M306.49,5.09c5.77,0,6.76,3.05,7.52,7.86,2.55,16.06,6,32,8.95,48,.86,4.57.8,9.41,2.32,13.72a49.57,49.57,0,0,0,7.32,14c10.3,13.16,9.63,22.66-3.18,33.44a14,14,0,0,1-6.36,3.3,17.93,17.93,0,0,1,1.9-3.45c1.41-1.64,3.13-3,4.6-4.58,8.49-9.09,8.3-16.39.67-26a48.33,48.33,0,0,1-8.33-15.61C316.25,56.91,311.36,37.91,306.11,19,304.81,14.33,303.4,9.72,306.49,5.09Z"/><path class="cls-1" d="M323.51,119l1.76-2.29c7.37-9.35,6.81-14.25-.66-23.22a53.74,53.74,0,0,1-8.84-15.94c-5.77-15.92-10.83-32.1-16.22-48.16-1.48-4.42-3.24-8.74-4.71-13.16a19.72,19.72,0,0,1-1.19-5.84c-.09-6.37,3.56-8.66,8.24-6.69.79,5.84.94,11.12,2.27,16.08,4.36,16.23,9.71,32.21,13.55,48.55,2.26,9.62,5.12,18.28,11.9,25.84C336.92,102.35,334.32,112.33,323.51,119Z"/><path class="cls-1" d="M355.71,37.54c-4.06,9.29-1.74,18.09,2.13,26.51,3.74,8.14,8.24,15.94,12.21,24,2.42,4.89,4.63,9.91,6.62,15,2.35,6,.6,11.37-3.94,15.43a135.72,135.72,0,0,1-14.67,11.1c-6.34,4.28-13,8.11-19.42,12.22a58.16,58.16,0,0,0-6,4.46c-12.52,10.48-13.58,21.55-2.17,33.33,6.43,6.64,14.21,12,21.38,17.91l4.61,3.74c-1.6.25-2.24.56-2.48.36q-13.08-10.38-26.09-20.87a15.88,15.88,0,0,1-2-2.23c-9.93-11.72-9.18-22.41,3.1-31.74,8.86-6.73,18.46-12.47,27.73-18.65,1.25-.83,2.52-1.62,3.74-2.49,13.18-9.28,15.36-18.2,8.09-32.56C363.27,82.67,357.85,72.36,353,61.81c-2.6-5.65-3.56-11.84-1.55-18a69.93,69.93,0,0,1,2.93-6.65Z"/><path class="cls-1" d="M220.16,139.49c1,2.82,2.25,5.59,2.75,8.5a13.37,13.37,0,0,1-.55,6.79c-3.51,9.1-8.22,17.84-10.72,27.18-1.39,5.22-.52,11.83,1.46,17,3.38,8.76,8.41,16.89,12.82,25.24,1.07,2,2.45,3.88,4.08,6.41-4.62-.4-7.21-1.78-9-5.7a129.3,129.3,0,0,0-9.49-17c-7.52-11.52-9.28-23.9-5.09-36.74,3.54-10.83,8.25-21.29,12.45-31.91Z"/><path class="cls-1" d="M358.22,197.64c-.77.65-1,.87-1,.84-11.53-7.29-23.09-14.64-30-26.93-4.06-7.19-3-15,3.67-20.9,6.27-5.63,13.5-10.22,20.48-15,6-4.15,12.54-7.61,18.37-12,11.26-8.48,12.84-16.15,6.4-28.62-4.81-9.32-10.12-18.38-14.57-27.86a80.3,80.3,0,0,1-5.4-17c-.66-3,.31-6.37.54-9.57l1.56-.21c.44,1.05,1.29,2.12,1.25,3.15-.36,9.88,3.6,18.56,7.66,27.12a171.41,171.41,0,0,0,10.38,18.77c5.14,8,4.06,17,4.34,25.68.06,2.12-2.77,4.89-4.93,6.42-6.12,4.3-12.63,8-18.89,12.14-7.08,4.65-14.51,8.92-21,14.33-10.8,9-11.67,19-2.26,29.47,5.83,6.5,13.18,11.63,19.86,17.36C355.79,195.74,357,196.65,358.22,197.64Z"/><path class="cls-1" d="M23.8,223.35c-6-2.22-10.43-5.51-11.74-12.53-2.24-12.1-5.94-23.95-7.72-36.09-2.8-19.22.83-38.19,4.51-57,.52-2.66,2.85-5,4.54-7.78-5,29.08-4.33,57.35.44,85.64.72,4.26,1.22,8.56,1.73,12.86C16.27,214.55,18.71,219.62,23.8,223.35Z"/><path class="cls-1" d="M315.74,8.68c8.41,1.62,9.41,2.53,9.78,9.63.66,12.31,1,24.63,1.77,36.93a65.74,65.74,0,0,0,12.76,35.2c8.53,11.81,7.7,20.92-3.13,30.71-4.1,3.7-8.76,6.78-13.17,10.14l-1.07-1.3c1.21-1.1,2.43-2.19,3.62-3.32,4.1-3.86,8.67-7.36,12.17-11.71,4.81-6,6.08-13.62,1.07-19.46C328.83,83,325.93,68.21,323.63,52.77c-1.95-13.13-4.93-26.12-7.41-39.18C315.93,12,315.9,10.43,315.74,8.68Z"/><path class="cls-1" d="M264.51,236.38c4.93-13.15.06-23.75-8.37-33.75C251.56,197.2,247.83,191,244,185c-1.26-2-1.68-4.49-2.9-7.94,6.81,4.16,13.06,6.41,16.71,12.87,2.91,5.15,7.35,9.42,10.84,14.28,6.09,8.49,7.76,17.76,4.56,27.89C271.78,236.65,269.31,238.26,264.51,236.38Z"/><path class="cls-1" d="M322.13,134.68c1.3-1,2.61-2,3.9-3,5.1-4,10.67-7.52,15.17-12.1,8.34-8.48,9.53-18.73,2.24-28.07-10.78-13.81-14.31-29.35-14.23-46.26.05-10.25,0-20.49,0-30.36,7.17,2.75,7.35,3.14,6.63,11.38-.77,9-1.71,17.92-2,26.89-.39,12.73,3.61,24.28,10.95,34.63,10.9,15.36,8.63,27.36-8.32,39.22-4.4,3.08-9,5.89-13.5,8.83Z"/><path class="cls-1" d="M243.17,234.28c-6-.74-10-1.21-12.5-6.43-3.57-7.46-8.21-14.39-12.31-21.6-6.68-11.73-6.68-23.77-1.24-35.9,2.36-5.25,5.09-10.34,7.81-15.82,3,2.7,2.85,5,1.08,7.73q-15,23.46,1.56,45.93c3.94,5.34,7.71,10.83,11.25,16.44C240.51,227.3,241.47,230.42,243.17,234.28Z"/><path class="cls-1" d="M158.32,127.64c-1.48-4.81-.71-8.75,4.24-12a161.09,161.09,0,0,0,15.79-12.18c11.73-9.94,17.22-22.35,7.87-38.39-4.79-8.21-5.15-17.19-1.63-26,1.21-3,3.85-5.43,5.83-8.12l1.46.73c-.53,2.5-.53,5.29-1.69,7.45-4.51,8.38-3.64,16.53,1.12,24.18,10.4,16.72,3.2,29-7.16,38.54-3.91,3.61-8.13,6.9-11.88,10.67C167.49,117.36,163.05,122.49,158.32,127.64Z"/><path class="cls-1" d="M118.34,237.24Q106.1,211.72,93.8,186.13c5.73-1.59,9.72-.09,13.16,5.23,8.06,12.46,13.57,25.53,12.9,40.66-.08,1.75-.4,3.5-.6,5.25Z"/><path class="cls-1" d="M366.76,184.5c-.76,1.29-1.48,2.52-2.87,4.86-5.25-5.38-10.61-9.88-14.74-15.32-6.22-8.21-5.63-17.06,2.38-23.58,9.05-7.37,19.23-13.35,28.91-19.94l1.73,1.77c-1.16,1.61-2,3.65-3.54,4.76-4.7,3.41-9.93,6.12-14.47,9.73-12.21,9.71-13,20.39-2.69,32.11C363.11,180.75,364.87,182.5,366.76,184.5Z"/><path class="cls-1" d="M102.81,238.22a56,56,0,0,1-5.53-3.83c-5.11-4.46-9.81-9.44-15.18-13.53-12.24-9.33-15.71-15.45-18.25-34.69,7.08-1.19,7.38-1.27,9,5.26,3.11,12.24,10,21.8,19.23,30.19,4.66,4.27,8.53,9.4,12.76,14.15Z"/><path class="cls-1" d="M338.66,21.39c5.66,2.36,6.77,5.67,4.81,10.91A97.62,97.62,0,0,0,339,49.13c-1.55,8.64.23,16.9,4.35,24.63,3.91,7.35,8.15,14.53,11.75,22,4.71,9.79,3.44,18.41-4.78,25.32-8.83,7.4-18.57,13.72-27.9,20.51l-1.24-1.47a50.7,50.7,0,0,1,4-3.53c6.84-5,14.17-9.45,20.51-15,9.53-8.36,11.7-18.93,4.3-29.07C336.15,73.65,334.46,53,337.74,31.12,338.2,28,338.34,24.88,338.66,21.39Z"/><path class="cls-1" d="M294.94,2.26c-4.92,4.91-3.92,10.17-2,15.32,4.19,11.39,8.65,22.68,12.9,34.06,2,5.4,3.79,10.9,5.67,16.36l-1.39.7c-2.83-4.59-6.07-9-8.41-13.8-4.8-9.87-9.22-19.92-13.58-30a70.41,70.41,0,0,1-4.36-12.71C282.26,5.5,287.52.6,294.94,2.26Z"/><path class="cls-1" d="M40.33,99.51c3-1.8,5-2.89,6.94-4.21,5.21-3.6,5.43-5.89.92-10.23-3-2.89-6.3-5.48-9.18-8.46-5.45-5.65-5.15-9.75.85-14.67,2.58-2.11,5.29-4,7.88-6.14C56.3,48.88,57.18,44,50.11,35.64,42,26.07,41,15.29,42.92,3.69,43.53.06,43.65.08,47.84.93c-.5,4.27-1.16,8.53-1.47,12.81a29.4,29.4,0,0,0,7.31,22.14c5.53,6.45,4,17-2.87,21.91-2.43,1.75-5,3.3-7.31,5.22-4.91,4.13-5.19,8.27-.64,12.77,3.31,3.27,7.09,6,10.58,9.14,5,4.39,4.51,7.67-1.47,10.5-3,1.41-6.13,2.53-9.22,3.75A14.75,14.75,0,0,1,40.33,99.51Z"/><path class="cls-1" d="M320,145.51a36.61,36.61,0,0,1,3.76-3.32c6.91-4.65,14-9,20.77-13.86a61.76,61.76,0,0,0,10.06-8.9c5.59-6.22,7-13.53,3.77-21.37-1.78-4.29-3.53-8.73-6.15-12.51-12.48-18-14.87-36.71-4.72-56.71,2.47.89,3,2.35,1.37,5.25-7.31,13-6.93,26,.37,39,4.08,7.26,7.85,14.68,11.64,22.09,5.21,10.21,4.11,19-4.39,26.67-5.52,5-12,8.86-18.2,13.09-5.76,3.94-11.64,7.69-17.47,11.53Z"/><path class="cls-1" d="M256.8,185.24c5.5-.23,9.15,1.43,12,5.51,3.05,4.34,6.87,8.12,10,12.42,6.44,8.88,7.61,18.56,3.6,28.8-2.06,5.26-2.09,5.25-8.38,4.51.43-1.26.8-2.47,1.25-3.65,3.5-9.18,2.75-18-2.72-26.16-3.7-5.51-7.87-10.69-11.83-16C259.49,189,258.28,187.27,256.8,185.24Z"/><path class="cls-1" d="M181.13,43.21c-3.21,9.52.6,17.13,4,24.94,6.17,14,4.7,21.75-6.51,32.16-6.3,5.84-13.25,11-19.9,16.42l-1.41-1.22a23.68,23.68,0,0,1,3-4c4.56-4.12,9.52-7.83,13.87-12.16,7.64-7.6,9.64-16.83,6.57-27.14-1.32-4.46-2.82-8.87-4-13.37C175.22,53.33,174.8,47.93,181.13,43.21Z"/><path class="cls-1" d="M144.65,236.53c3.36-6.44,7.1-12.72,10-19.36,4.18-9.52,7.73-19.31,11.65-28.95.39-1,1.46-1.67,2.21-2.49.65.94,1.94,2,1.83,2.8-.72,5.9-.76,12.14-2.86,17.56a237.1,237.1,0,0,1-13.72,28.68c-1.14,2.07-5.29,2.48-8.06,3.66Z"/><path class="cls-1" d="M73.91,186.11c4.93-1.62,7.12.4,9,4.6,5.59,12.82,12.53,24.86,21.72,35.56,2.49,2.89,3.76,6.82,5.6,10.27l-1.51,1a8.43,8.43,0,0,1-2.21-1.37c-4.65-5.55-8.7-11.73-13.94-16.63A61.15,61.15,0,0,1,73.91,186.11Z"/><path class="cls-1" d="M298,57.52c-2.25-2.58-5.14-4.85-6.65-7.81C285.83,38.9,280.5,28,275.65,16.86c-3.27-7.53-1.38-12.38,5.05-15.45,1.49-.72,3.31-.74,5.55-.68C279,7,281,13.71,284.08,20.59q6.81,15.26,13.56,30.55c.73,1.62,1.38,3.28,2.06,4.93Z"/><path class="cls-1" d="M198,194.72c-4.2-9.71-5-19.79-1.85-29.68,6.21-19.48,13-38.76,19.64-58.11.84-2.47,1.83-4.88,2.8-7.45,1.12,19.49-7.64,36.06-14.49,53.05C198.59,166.21,194.78,179.86,198,194.72Z"/><path class="cls-1" d="M367.29,183.26c-3.34-4.83-6.69-8.75-9-13.21-3.45-6.72-1.72-13.33,3.48-18.26,5.47-5.19,11.83-9.43,18.34-14.5,1.21,4.66-.11,6.87-2.9,9a43.17,43.17,0,0,0-8.4,8.41c-4,5.46-3.91,11.44-.71,17.4C370.79,177.07,370.77,177.09,367.29,183.26Z"/><path class="cls-1" d="M20.7,16.52C25.08,21.17,26,26.63,23.54,32.2a82.07,82.07,0,0,1-7.35,12.92c-3.35,5-7.38,9.45-10.7,14.42C.6,66.85.52,74.34,5.14,82,11,91.71,10,96.3,1.31,103.88c-.21-.17-.64-.42-.61-.49,5-12.76-2.47-25.48-.09-38.2C1.2,62,1.91,58.68,3.54,56c4-6.52,8.83-12.52,12.77-19.07C20,30.79,23,24.22,20.7,16.52Z"/><path class="cls-1" d="M217.65,227.11c-1.57-2-3.51-3.83-4.62-6.07-3.17-6.39-5.69-13.12-9-19.42a41,41,0,0,1-3.14-32c4.48-14.7,10.36-29,16.2-43.31,1.79,4.52,2.3,8.66.13,13.25-4.33,9.16-8.54,18.42-12,27.94-5.46,15.18-3.78,29.7,5.49,43.23,3.27,4.77,5.84,10,8.72,15.06Z"/><path class="cls-1" d="M28.52,28.6c1.89,3.41.84,7.73-1.48,11.6-2.19,3.67-5.15,6.9-7.76,10.33-3.11,4.09-6.59,7.95-9.23,12.33-3.52,5.86-2.85,11.63,1.68,17,7.39,8.82,6.64,15.16-2.33,22.4a27.44,27.44,0,0,1-7.88,5c1.62-1.72,3.28-3.4,4.85-5.17,6-6.79,6.51-12.33,1.46-19.81S3,67.64,7.44,60.31c2.15-3.54,4.92-6.69,7.2-10.16C19.41,42.91,24,35.59,28.52,28.6Z"/><path class="cls-1" d="M229.91,70.69c2.14-10.08-1.63-17.76-8-24.76-5.35-5.89-6.76-12.51-3.16-20.24,2.06-4.42,2.39-9.61,4-14.27.66-1.91,2.72-3.33,4.15-5l1.53.91a33.22,33.22,0,0,1-1.29,5.38,62.71,62.71,0,0,1-3.29,6.15c-5.64,10.29-4.87,15.18,3.65,23.31a27.15,27.15,0,0,1,3.78,4C237.13,54.59,241.6,60.88,229.91,70.69Z"/><path class="cls-1" d="M382.32,127a26.55,26.55,0,0,1-3.76,3.46c-6.94,4.29-14.06,8.29-20.92,12.68a50.22,50.22,0,0,0-8.88,7.23c-7.2,7.42-8.13,15.69-1.92,23.9,3.86,5.1,9.1,9.15,13.65,13.74a21,21,0,0,1,2.2,3.24c-1.25-.21-2.85,0-3.69-.69-5.5-4.56-11.41-8.8-16.1-14.1-8.47-9.57-7.67-19.21,2.06-27.47,5.17-4.38,11.11-7.9,16.87-11.53,6.4-4,13-7.75,19.52-11.6Z"/><path class="cls-1" d="M35.29,29c5.62,7.31,5.67,14.34.45,20.2C32.31,53,28.45,56.49,25,60.29,18.81,67,19,73.09,25.4,79.58c2.1,2.13,4.31,4.17,6.26,6.44,2.76,3.22,2.62,6.52-.88,9a32.48,32.48,0,0,1-10.21,5c.92-1,1.84-2,2.77-3,3-3.2,3.47-6.76,1.26-10.52-1.77-3-3.77-5.89-5.59-8.88-3.84-6.3-3.62-11.3,1.07-17,2.85-3.46,6-6.67,9.16-9.9C35,44.89,38.9,38.43,35.29,29Z"/><path class="cls-1" d="M123.66,233.64c-2.45-21.15-2.72-21.91-17.33-47.15,9.68-3.19,14.92,1,17.93,11.27,1.94,6.6.81,14.15.67,21.26C124.84,223.9,124.11,228.77,123.66,233.64Z"/><path class="cls-1" d="M83.6,186.13c4.88-1.56,7.63.13,9.7,4.45,6,12.58,12.4,25,18.46,37.5,1.3,2.71,1.83,5.8,2.94,9.44-1.5-.49-2.12-.5-2.3-.78-4.11-6.56-7.86-13.36-12.3-19.69C93.33,207.39,87.16,197.49,83.6,186.13Z"/><path class="cls-1" d="M157.8,109.3c.77-1.27,1.29-2.84,2.37-3.77,11.64-10.11,14.16-22.8,10.71-37.2-1.15-4.78-2-9.42,2.34-13.36,2.05,6.85,4.54,13.56,6,20.48,2,9.12-1.12,17.2-7.43,23.83-3.86,4-8.33,7.52-12.52,11.26Z"/><path class="cls-1" d="M353.09,33.94a6.63,6.63,0,0,1-.54,2.45C346.36,45,347.42,54.14,351.14,63c3.52,8.4,8.08,16.37,12.14,24.55,2,4,4.15,8,5.79,12.13,3.17,8,1.31,15.06-5.11,20.74a37.42,37.42,0,0,1-9.87,6.38c1.86-1.76,3.8-3.45,5.56-5.3,6.33-6.63,8.37-14.41,4.89-23-2.43-6-6-11.47-8.64-17.37-3.52-7.84-7.27-15.67-9.77-23.86-2.65-8.7,1.8-16.3,5.46-23.78Z"/><path class="cls-1" d="M29.49,98.08c.78-.58,1.57-1.15,2.33-1.75,5.23-4.2,5.43-7.52.68-12.42-1.86-1.9-3.93-3.6-5.74-5.54-5.36-5.72-5.51-10.91-.34-16.78,2.85-3.24,6-6.23,9-9.35,7.57-7.87,8.28-12,3.82-21.93-.63-1.41-1.28-2.82-1.92-4.23l1.24-.61c2.26,4.52,5,8.87,6.66,13.61,1.73,5-.69,9.51-4.26,13.09-3.16,3.17-6.82,5.85-10,9-6,6-5.86,11.33.35,17.16,2.55,2.38,5.47,4.36,8,6.76,4,3.78,3.68,6.56-.87,9.65a40.48,40.48,0,0,1-4.78,2.66c-1.15.57-2.39,1-3.59,1.41Z"/><path class="cls-1" d="M30.18,25.66c5.5,7.7,5.73,14,.82,20.12-3.31,4.16-7.15,7.9-10.8,11.78-7.25,7.7-7.82,14.06-2,22.85,8,12,7.52,14.2-4.42,22.12a12.12,12.12,0,0,1-4.73,2.21c1.9-1.79,3.84-3.55,5.7-5.38,5.63-5.54,6.06-9.32,1.81-15.86-.9-1.39-1.94-2.7-2.91-4-4.37-6.08-4.75-11.83-.53-18.08A126.06,126.06,0,0,1,22.5,49.69C28.24,43.05,33.77,36.4,30.18,25.66Z"/><path class="cls-1" d="M278.31.07c-7.39,7.25-8.11,9.86-3.95,19.33,4.81,11,10.11,21.68,14.67,33.58-1.95-1.19-4.78-1.91-5.69-3.64-5.7-10.89-11.43-21.81-16.24-33.1C263.38,7.47,268.1,1,278.31.07Z"/><path class="cls-1" d="M360.12,195.35c-.7-.09-1.62.07-2.07-.31-7.53-6.48-15.73-12.38-22.3-19.73-7.63-8.54-6.58-17.82,1.93-25.61,4.74-4.34,10.28-7.86,15.72-11.36,9.34-6,18.88-11.7,29.05-17.28-1.08,1.35-1.89,3.12-3.27,4-7.89,4.93-16,9.49-23.85,14.5a88.52,88.52,0,0,0-13.57,10.07c-8.38,8-9.24,17.35-1.79,26.22,4.86,5.78,11.19,10.31,16.88,15.37,1.24,1.1,2.58,2.08,3.87,3.12Z"/><path class="cls-1" d="M236.89,5.33C234.42,9.21,232,13.09,229.5,17c-4.35,6.78-4.15,11,1.12,17.08,4.25,4.87,9.09,9.29,12.91,14.46,4.6,6.22,4.05,7.23-3.65,11.42-.36-9-6.74-14.09-11.95-20-6.6-7.5-6.78-10.74-2.33-19.74,2-4.11,3.21-8.64,5.29-12.71.79-1.54,3-2.35,4.59-3.48Z"/><path class="cls-1" d="M119,186.15c12-1.31,17.51,2.88,16.09,13.32-1.71,12.55-5.2,24.87-7.92,37.29l-1.2-.27c.55-8.27,1-16.54,1.67-24.79C128.45,202.23,127.49,193.4,119,186.15Z"/><path class="cls-1" d="M282.59,236.4c11.72-21.3-2.13-35-14.37-49.16.29-.34.59-.67.88-1,1.66.62,3.81.79,4.88,1.95a161.68,161.68,0,0,1,12.88,15.2c6.65,9.3,7.28,19.42,2.18,29.66-.87,1.75-3.1,2.82-4.71,4.2Z"/><path class="cls-1" d="M34.3,99.23c2.59-1.77,5.3-3.39,7.74-5.35,3.05-2.44,3.19-5.44.41-8.15s-5.83-5-8.65-7.53c-6.36-5.83-6.37-11-.13-16.93,1.82-1.72,3.65-3.43,5.57-5C46,50.7,51,44.57,45.42,34.09,54.53,42.26,54.36,48.53,46,55c-2.63,2-5.34,4-7.93,6.07-6.68,5.41-7,10-.94,16.29,2.77,2.86,6,5.31,8.79,8.13,4.13,4.13,3.76,7-1.33,9.76-3.18,1.7-6.59,3-9.89,4.43Z"/><path class="cls-1" d="M276.3,186.49c1.26.14,3-.19,3.7.51,8.32,8.53,18.41,16.26,18.85,29.45.18,5.56-2.08,11.26-3.64,16.78-.34,1.2-2.45,1.89-4.44,2.52C301.59,214.52,288.61,201,276.3,186.49Z"/><path class="cls-1" d="M311.61,230c6.67-14.44,5-23.74-6.32-35.06a114.68,114.68,0,0,1-11.37-12.51c1.15.19,2.68,0,3.4.64,5.86,5.4,11.88,10.67,17.23,16.54,7.71,8.45,8.53,18.48,2.69,27.44-1.1,1.68-3.17,2.73-4.8,4.07Z"/><path class="cls-1" d="M280.45,51.13c-1.29-.7-3.19-1.07-3.78-2.15-5.8-10.61-11.86-21.12-16.86-32.11-3.91-8.58,0-14.16,9.79-16.09-6.75,5.66-7.56,8.12-4.32,16.7,2.16,5.72,4.77,11.3,7.47,16.79S278.37,44.78,281.2,50Z"/><path class="cls-1" d="M0,54.48c.82-2.61,1.28-5.41,2.52-7.8,2.9-5.59,6.25-10.94,9.27-16.46,4.71-8.61,2.8-16.28-3.51-23.29-1.61-1.8-3-3.8-4.51-5.71L4.68.12c1,.61,2.2,1,2.86,1.87,2.31,3,4.28,6.25,6.64,9.21C19.49,17.85,20.8,25,16.35,32.42,11.74,40.18,6.74,47.7,1.91,55.33Z"/><path class="cls-1" d="M319.29,227.48c7.49-12,3.92-21.53-4.46-30.34-5.33-5.6-10.53-11.33-16-17.26.82.2,1.94.12,2.52.65,6.92,6.23,13.92,12.38,20.56,18.9,5.48,5.4,8.42,11.91,6.45,19.89C327.26,223.68,325,226.74,319.29,227.48Z"/><path class="cls-1" d="M297.26,234c4.16-8.62,6.54-17.75,1.64-26.34-4.38-7.68-10.41-14.42-16.18-22.21,1.71.47,3.54.4,4.36,1.28,5.11,5.47,10.42,10.83,14.84,16.83,6.92,9.4,4.88,19.19-.37,28.65-.62,1.11-2.07,1.75-3.13,2.61Z"/><path class="cls-1" d="M304.33,232.05c1-2.48,2.06-4.91,2.86-7.43a23.82,23.82,0,0,0-4.41-23.46c-4.48-5.51-9.36-10.71-13.76-17,1.28.4,2.92.44,3.78,1.27,5,4.89,10.11,9.69,14.58,15,7.79,9.27,8,20,1.15,29.91-.79,1.14-2.26,1.8-3.42,2.68Z"/><path class="cls-1" d="M56.53,35.91A26.76,26.76,0,0,1,48.65,17c-.08-4.12.72-8.26,1-12.4C50,.28,52.35-.55,56.2.7a14.77,14.77,0,0,1,.32,2C56.53,13.3,56.53,23.94,56.53,35.91Z"/><path class="cls-1" d="M157.87,103.1q4.24-18.43,8.5-36.87C173.22,79.78,169.68,95,157.87,103.1Z"/><path class="cls-1" d="M256.22,52.15l-5.59,2.17c-6.24-7.24-12-13.94-17.8-20.63-3.33-3.84-5.59-7.89-3.15-12.52Z"/><path class="cls-1" d="M303.69,176.68c9,8.09,18.06,16.14,27,24.31a21.08,21.08,0,0,1,4.33,5.45c3.16,5.94,5.45,12.25-5.13,16,4.89-13.27-3.09-21.13-11.45-28.81-4.66-4.28-9.4-8.48-14-12.83a15.35,15.35,0,0,1-2.1-3.44Z"/><path class="cls-1" d="M1.3,1.76C3.86,5,6.46,8.16,9,11.4a14.16,14.16,0,0,1,2,15c-2.61,6-5.84,11.79-8.81,17.66L.32,43.63c.43-3.35,0-7.18,1.45-10,5-9.33,7.22-18.19-.49-27.21C.39,5.42.65,3.4.38,1.83Z"/><path class="cls-1" d="M131.46,228.69c1.41-6.61,2.58-13.29,4.31-19.82,2.08-7.82,3-15.37-2.4-22.37,8.45-2,11.41-.29,10.07,7.75-1.5,8.93-4.9,17.55-7.61,26.26-.91,2.94-2.21,5.76-3.33,8.63Z"/><path class="cls-1" d="M163.47,186.57c0,10.3-17.75,48.18-24.6,50.86,1-2.19,1.69-3.75,2.43-5.29,4.81-10.06,9.84-20,14.34-30.21,1.85-4.2,2.41-9,3.84-13.36.4-1.25,1.76-2.19,2.69-3.27Z"/><path class="cls-1" d="M261,51.79c-1.35-.41-3.16-.41-4-1.3-5.7-6.26-11.21-12.68-16.73-19.1a74.17,74.17,0,0,1-4.9-6.29c-2.84-4.15-2.69-8,.59-10.74,1.63,3.59,2.76,7.79,5.18,11,4.79,6.37,10.33,12.18,15.49,18.28,1.8,2.12,3.41,4.39,5.1,6.6Z"/><path class="cls-1" d="M273.57,50.52a8.13,8.13,0,0,1-1.72-1.5c-6.14-9.71-12.55-19.26-18.24-29.23-4.25-7.45-2.5-12,5.6-16.21-4.39,5-3.63,9.82-1.37,14.41,4.26,8.66,8.87,17.13,13.33,25.68,1.1,2.1,2.22,4.19,3.33,6.28Z"/><path class="cls-1" d="M57.22,57.49c-1.1,1.85-1.87,4-3.37,5.47-5.23,5-5.4,9.16-.46,14.57a43.48,43.48,0,0,1,3.89,5.83l-1.61,1.31c-3.9-3.51-8-6.85-11.64-10.59-2.85-2.92-2.87-6.49.3-9.23,3.57-3.1,7.55-5.73,11.36-8.57Z"/><path class="cls-1" d="M339.82,215.7c0-7.43-3.88-12.39-8.57-16.75-7.66-7.11-15.53-14-23.21-21.06a5.48,5.48,0,0,1-1.52-3.94c9.63,8.29,19.3,16.53,28.85,24.9a52.28,52.28,0,0,1,7.18,7.55C346.3,211.38,346.08,211.81,339.82,215.7Z"/><path class="cls-1" d="M13.07,220.76C2.42,205.19-.86,187.75.74,170c1.76,7.91,3.58,16.74,5.7,25.5C8.49,204,10.85,212.34,13.07,220.76Z"/><path class="cls-1" d="M378.44,84.89c-8-9.32-15.9-28.31-16.54-39.77C370,58.34,374.68,71.41,378.44,84.89Z"/><path class="cls-1" d="M351,206.35,348.63,209c-8.05-7.21-15.58-13.83-23-20.61-5.12-4.7-10.14-9.52-14.91-14.56-1-1.08-.77-3.35-.38-5.3,5,10.18,14.09,16,22.28,22.71C338.56,196,344.39,200.92,351,206.35Z"/><path class="cls-1" d="M372.55,173.93c-7.48-8.88-4.46-19.78,7.74-27C377.57,156.43,375.13,164.92,372.55,173.93Z"/><path class="cls-1" d="M55.78,122.84v35.41C48.57,148.76,48.38,129.76,55.78,122.84Z"/><path class="cls-1" d="M152.66,185.88h4.88c-2.14,17.56-11.76,31.59-19.36,46.45C143.14,217.07,152.28,203.14,152.66,185.88Z"/><path class="cls-1" d="M242.2,10.17c1.34,4.33,1.81,8.88,4,12.31,5.13,8,11.12,15.37,16.74,23,1.11,1.52,2.14,3.09,3.54,5.12-1.25-.09-1.93.07-2.13-.18-7.22-8.66-14.69-17.15-21.5-26.14-5.22-6.89-4.8-9.89.2-14.2C243.17,10,243.38,10.05,242.2,10.17Z"/><path class="cls-1" d="M135.92,229.34c2.64-14.38,12-27.29,9.14-43.29a9.33,9.33,0,0,1,1.86-.34,24,24,0,0,1,3.05.37C150.87,202.46,141.57,215.33,135.92,229.34Z"/><path class="cls-1" d="M251.28,6c-3.78,5.9-1.72,11.22,1.37,16.38,3.26,5.42,6.66,10.76,10,16.15a10.41,10.41,0,0,1,1.52,3.93c-7.37-7.69-14.21-15.77-18.37-25.67C243.53,11.51,247.53,8.8,251.28,6Z"/><path class="cls-1" d="M331.15,142.38c-17.26,14-20.21,23.77-2.49,43-6.7-5.41-15.6-10.41-15-19.9C314.25,155.7,319.77,147.18,331.15,142.38Z"/><path class="cls-1" d="M7.15,112.55C5,127.26,2.79,142.25.52,157.67,1.28,142-2.31,126,7.15,112.55Z"/><path class="cls-1" d="M40.29.15V23.46C36.63,19.72,34.08,6,36.86,1.54,37.39.69,39.14.58,40.29.15Z"/><path class="cls-1" d="M320.91,93.87c8.9,6.89,9.67,14,1.74,22C325,107.43,325.23,100.39,320.91,93.87Z"/><path class="cls-1" d="M25.29,226l20.41,9.58-.82,1.68c-9.11,1.75-12.69-8.12-20.36-9.41C24.78,227.24,25,226.63,25.29,226Z"/><path class="cls-1" d="M20,236.65c-4.88,1.38-6.66.47-8.5-2.51-2.87-4.66-6.74-8.7-9.57-13.65Z"/><path class="cls-1" d="M34.75,21.3C30.61,15.45,30.2,8.64,30.82,1.69,30.88,1.08,32.58.61,33.66,0,34.05,7.59,34.4,14.44,34.75,21.3Z"/><path class="cls-1" d="M11.39,236.57C5.06,237.88.51,232.2,1.13,224.14,4.83,228.61,7.93,232.37,11.39,236.57Z"/><path class="cls-1" d="M.68,29V11.21C5.29,15.05,5.39,21.44.68,29Z"/><path class="cls-1" d="M26.29,237.59c-8.11-.22-9.25-9.89-16-11.88l1-1.37,16.09,11.47C27,236.41,26.63,237,26.29,237.59Z"/><path class="cls-1" d="M209.51,221.82c-6.85-3.91-4.37-12.25-8.36-17.52l1.36-.65q4.25,8.73,8.47,17.47Z"/><path class="cls-1" d="M62.5,238.47l-18.22-9.31.36-1,19.13,7.48C63.35,236.6,62.92,237.53,62.5,238.47Z"/><path class="cls-1" d="M36.25,236.49c-5.47,2.37-7.17-.89-9.55-3.1s-5.15-4.09-7.24-7Z"/><path class="cls-1" d="M7.57,219.39C1.73,214.27.26,207.59,1.26,200,3.34,206.39,5.42,212.77,7.57,219.39Z"/><path class="cls-1" d="M28.64,18.66c-1.18-5.17-2.45-10.34-3.46-15.55C25,2.34,26,1.34,26.48.44c.59.91,1.6,1.77,1.72,2.74.57,5,.92,10,1.34,15Z"/><path class="cls-1" d="M39.86,229.21l14.56,6.68c-7.42,3.2-9.62-4.62-15.28-5.14Z"/><path class="cls-1" d="M56.28,76.82c-5.49-4.37-5.49-8.27,0-12.37Z"/><path class="cls-1" d="M21.71.14l2.64,12.58-1.15.42L19.27,1.07Z"/></g></g></svg>